<mxfile host="app.diagrams.net" agent="Mozilla/5.0 (Windows NT 10.0; Win64; x64) AppleWebKit/537.36 (KHTML, like Gecko) Chrome/135.0.0.0 Safari/537.36" version="26.2.14">
  <diagram name="Σελίδα-1" id="sXHt0XjnI6KPEEMTnELy">
    <mxGraphModel dx="2894" dy="1857" grid="1" gridSize="10" guides="1" tooltips="1" connect="1" arrows="1" fold="1" page="1" pageScale="1" pageWidth="827" pageHeight="1169" math="0" shadow="0">
      <root>
        <mxCell id="0" />
        <mxCell id="1" parent="0" />
        <mxCell id="ZiS1MG1Vd3PeNEByEQu3-1" style="edgeStyle=none;shape=connector;rounded=0;orthogonalLoop=1;jettySize=auto;html=1;entryX=0.361;entryY=0.94;entryDx=0;entryDy=0;entryPerimeter=0;strokeColor=#FF3333;align=center;verticalAlign=middle;fontFamily=Helvetica;fontSize=11;fontColor=default;labelBackgroundColor=none;endArrow=none;" parent="1" edge="1">
          <mxGeometry relative="1" as="geometry">
            <Array as="points">
              <mxPoint x="370" y="980" />
            </Array>
            <mxPoint x="627.9050000000002" y="598.8" as="targetPoint" />
          </mxGeometry>
        </mxCell>
        <mxCell id="ZiS1MG1Vd3PeNEByEQu3-2" style="edgeStyle=none;shape=connector;rounded=0;orthogonalLoop=1;jettySize=auto;html=1;entryX=0.361;entryY=0.94;entryDx=0;entryDy=0;entryPerimeter=0;strokeColor=#FF3333;align=center;verticalAlign=middle;fontFamily=Helvetica;fontSize=11;fontColor=default;labelBackgroundColor=none;endArrow=none;" parent="1" edge="1">
          <mxGeometry relative="1" as="geometry">
            <Array as="points">
              <mxPoint x="365" y="2119" />
            </Array>
            <mxPoint x="622.9050000000007" y="1737.7999999999993" as="targetPoint" />
          </mxGeometry>
        </mxCell>
        <mxCell id="ZiS1MG1Vd3PeNEByEQu3-3" style="edgeStyle=none;shape=connector;rounded=0;orthogonalLoop=1;jettySize=auto;html=1;entryX=0.361;entryY=0.94;entryDx=0;entryDy=0;entryPerimeter=0;strokeColor=#FF3333;align=center;verticalAlign=middle;fontFamily=Helvetica;fontSize=11;fontColor=default;labelBackgroundColor=none;endArrow=none;" parent="1" edge="1">
          <mxGeometry relative="1" as="geometry">
            <Array as="points">
              <mxPoint x="2498" y="5220" />
            </Array>
            <mxPoint x="2755.905" y="4838.799999999999" as="targetPoint" />
          </mxGeometry>
        </mxCell>
        <mxCell id="ZiS1MG1Vd3PeNEByEQu3-4" style="edgeStyle=none;shape=connector;rounded=0;orthogonalLoop=1;jettySize=auto;html=1;entryX=0.361;entryY=0.94;entryDx=0;entryDy=0;entryPerimeter=0;strokeColor=#FF3333;align=center;verticalAlign=middle;fontFamily=Helvetica;fontSize=11;fontColor=default;labelBackgroundColor=none;endArrow=none;" parent="1" edge="1">
          <mxGeometry relative="1" as="geometry">
            <Array as="points">
              <mxPoint x="638" y="1910" />
            </Array>
            <mxPoint x="895.9050000000002" y="1528.8" as="targetPoint" />
          </mxGeometry>
        </mxCell>
        <mxCell id="ZiS1MG1Vd3PeNEByEQu3-5" style="edgeStyle=none;shape=connector;rounded=0;orthogonalLoop=1;jettySize=auto;html=1;entryX=0.361;entryY=0.94;entryDx=0;entryDy=0;entryPerimeter=0;strokeColor=#FF3333;align=center;verticalAlign=middle;fontFamily=Helvetica;fontSize=11;fontColor=default;labelBackgroundColor=none;endArrow=none;" parent="1" edge="1">
          <mxGeometry relative="1" as="geometry">
            <Array as="points">
              <mxPoint x="358" y="1030" />
            </Array>
            <mxPoint x="615.9050000000002" y="648.8" as="targetPoint" />
          </mxGeometry>
        </mxCell>
        <mxCell id="ZiS1MG1Vd3PeNEByEQu3-178" style="edgeStyle=none;shape=connector;rounded=0;orthogonalLoop=1;jettySize=auto;html=1;entryX=0.361;entryY=0.94;entryDx=0;entryDy=0;entryPerimeter=0;strokeColor=#FF3333;align=center;verticalAlign=middle;fontFamily=Helvetica;fontSize=11;fontColor=default;labelBackgroundColor=none;endArrow=none;" parent="1" edge="1">
          <mxGeometry relative="1" as="geometry">
            <Array as="points">
              <mxPoint x="630" y="890" />
            </Array>
            <mxPoint x="887.9050000000002" y="508.79999999999995" as="targetPoint" />
          </mxGeometry>
        </mxCell>
        <mxCell id="ZiS1MG1Vd3PeNEByEQu3-179" style="edgeStyle=none;shape=connector;rounded=0;orthogonalLoop=1;jettySize=auto;html=1;entryX=0.361;entryY=0.94;entryDx=0;entryDy=0;entryPerimeter=0;strokeColor=#FF3333;align=center;verticalAlign=middle;fontFamily=Helvetica;fontSize=11;fontColor=default;labelBackgroundColor=none;endArrow=none;" parent="1" edge="1">
          <mxGeometry relative="1" as="geometry">
            <Array as="points">
              <mxPoint x="625" y="2029" />
            </Array>
            <mxPoint x="882.9050000000007" y="1647.7999999999993" as="targetPoint" />
          </mxGeometry>
        </mxCell>
        <mxCell id="ZiS1MG1Vd3PeNEByEQu3-180" style="edgeStyle=none;shape=connector;rounded=0;orthogonalLoop=1;jettySize=auto;html=1;entryX=0.361;entryY=0.94;entryDx=0;entryDy=0;entryPerimeter=0;strokeColor=#FF3333;align=center;verticalAlign=middle;fontFamily=Helvetica;fontSize=11;fontColor=default;labelBackgroundColor=none;endArrow=none;" parent="1" edge="1">
          <mxGeometry relative="1" as="geometry">
            <Array as="points">
              <mxPoint x="2758" y="5130" />
            </Array>
            <mxPoint x="3015.905" y="4748.799999999999" as="targetPoint" />
          </mxGeometry>
        </mxCell>
        <mxCell id="ZiS1MG1Vd3PeNEByEQu3-181" style="edgeStyle=none;shape=connector;rounded=0;orthogonalLoop=1;jettySize=auto;html=1;entryX=0.361;entryY=0.94;entryDx=0;entryDy=0;entryPerimeter=0;strokeColor=#FF3333;align=center;verticalAlign=middle;fontFamily=Helvetica;fontSize=11;fontColor=default;labelBackgroundColor=none;endArrow=none;" parent="1" edge="1">
          <mxGeometry relative="1" as="geometry">
            <Array as="points">
              <mxPoint x="898" y="1820" />
            </Array>
            <mxPoint x="1155.9050000000002" y="1438.8" as="targetPoint" />
          </mxGeometry>
        </mxCell>
        <mxCell id="ZiS1MG1Vd3PeNEByEQu3-182" style="edgeStyle=none;shape=connector;rounded=0;orthogonalLoop=1;jettySize=auto;html=1;entryX=0.361;entryY=0.94;entryDx=0;entryDy=0;entryPerimeter=0;strokeColor=#FF3333;align=center;verticalAlign=middle;fontFamily=Helvetica;fontSize=11;fontColor=default;labelBackgroundColor=none;endArrow=none;" parent="1" edge="1">
          <mxGeometry relative="1" as="geometry">
            <Array as="points">
              <mxPoint x="618" y="940" />
            </Array>
            <mxPoint x="875.9050000000002" y="558.8" as="targetPoint" />
          </mxGeometry>
        </mxCell>
        <mxCell id="ZiS1MG1Vd3PeNEByEQu3-230" style="edgeStyle=none;shape=connector;rounded=0;orthogonalLoop=1;jettySize=auto;html=1;entryX=0.361;entryY=0.94;entryDx=0;entryDy=0;entryPerimeter=0;strokeColor=#FF3333;align=center;verticalAlign=middle;fontFamily=Helvetica;fontSize=11;fontColor=default;labelBackgroundColor=none;endArrow=none;" parent="1" edge="1">
          <mxGeometry relative="1" as="geometry">
            <Array as="points">
              <mxPoint x="360" y="960" />
            </Array>
            <mxPoint x="617.9050000000002" y="578.8" as="targetPoint" />
          </mxGeometry>
        </mxCell>
        <mxCell id="ZiS1MG1Vd3PeNEByEQu3-231" style="edgeStyle=none;shape=connector;rounded=0;orthogonalLoop=1;jettySize=auto;html=1;entryX=0.361;entryY=0.94;entryDx=0;entryDy=0;entryPerimeter=0;strokeColor=#FF3333;align=center;verticalAlign=middle;fontFamily=Helvetica;fontSize=11;fontColor=default;labelBackgroundColor=none;endArrow=none;" parent="1" edge="1">
          <mxGeometry relative="1" as="geometry">
            <Array as="points">
              <mxPoint x="355" y="2099" />
            </Array>
            <mxPoint x="612.9050000000007" y="1717.7999999999993" as="targetPoint" />
          </mxGeometry>
        </mxCell>
        <mxCell id="ZiS1MG1Vd3PeNEByEQu3-232" style="edgeStyle=none;shape=connector;rounded=0;orthogonalLoop=1;jettySize=auto;html=1;entryX=0.361;entryY=0.94;entryDx=0;entryDy=0;entryPerimeter=0;strokeColor=#FF3333;align=center;verticalAlign=middle;fontFamily=Helvetica;fontSize=11;fontColor=default;labelBackgroundColor=none;endArrow=none;" parent="1" edge="1">
          <mxGeometry relative="1" as="geometry">
            <Array as="points">
              <mxPoint x="2488" y="5200" />
            </Array>
            <mxPoint x="2745.905" y="4818.799999999999" as="targetPoint" />
          </mxGeometry>
        </mxCell>
        <mxCell id="ZiS1MG1Vd3PeNEByEQu3-233" style="edgeStyle=none;shape=connector;rounded=0;orthogonalLoop=1;jettySize=auto;html=1;entryX=0.361;entryY=0.94;entryDx=0;entryDy=0;entryPerimeter=0;strokeColor=#FF3333;align=center;verticalAlign=middle;fontFamily=Helvetica;fontSize=11;fontColor=default;labelBackgroundColor=none;endArrow=none;" parent="1" edge="1">
          <mxGeometry relative="1" as="geometry">
            <Array as="points">
              <mxPoint x="628" y="1890" />
            </Array>
            <mxPoint x="885.9050000000002" y="1508.8" as="targetPoint" />
          </mxGeometry>
        </mxCell>
        <mxCell id="ZiS1MG1Vd3PeNEByEQu3-234" style="edgeStyle=none;shape=connector;rounded=0;orthogonalLoop=1;jettySize=auto;html=1;entryX=0.361;entryY=0.94;entryDx=0;entryDy=0;entryPerimeter=0;strokeColor=#FF3333;align=center;verticalAlign=middle;fontFamily=Helvetica;fontSize=11;fontColor=default;labelBackgroundColor=none;endArrow=none;" parent="1" edge="1">
          <mxGeometry relative="1" as="geometry">
            <Array as="points">
              <mxPoint x="348" y="1010" />
            </Array>
            <mxPoint x="605.9050000000002" y="628.8" as="targetPoint" />
          </mxGeometry>
        </mxCell>
        <mxCell id="ZiS1MG1Vd3PeNEByEQu3-257" style="edgeStyle=none;shape=connector;rounded=0;orthogonalLoop=1;jettySize=auto;html=1;entryX=0.361;entryY=0.94;entryDx=0;entryDy=0;entryPerimeter=0;strokeColor=#FF3333;align=center;verticalAlign=middle;fontFamily=Helvetica;fontSize=11;fontColor=default;labelBackgroundColor=none;endArrow=none;" parent="1" edge="1">
          <mxGeometry relative="1" as="geometry">
            <Array as="points">
              <mxPoint x="1498" y="3230" />
            </Array>
            <mxPoint x="1755.9050000000002" y="2848.8" as="targetPoint" />
          </mxGeometry>
        </mxCell>
        <mxCell id="ZiS1MG1Vd3PeNEByEQu3-346" style="edgeStyle=none;shape=connector;rounded=0;orthogonalLoop=1;jettySize=auto;html=1;entryX=0.361;entryY=0.94;entryDx=0;entryDy=0;entryPerimeter=0;strokeColor=#FF3333;align=center;verticalAlign=middle;fontFamily=Helvetica;fontSize=11;fontColor=default;labelBackgroundColor=none;endArrow=none;" parent="1" edge="1">
          <mxGeometry relative="1" as="geometry">
            <Array as="points">
              <mxPoint x="910" y="2675" />
            </Array>
            <mxPoint x="1167.9050000000002" y="2293.8" as="targetPoint" />
          </mxGeometry>
        </mxCell>
        <mxCell id="ZiS1MG1Vd3PeNEByEQu3-347" style="edgeStyle=none;shape=connector;rounded=0;orthogonalLoop=1;jettySize=auto;html=1;entryX=0.361;entryY=0.94;entryDx=0;entryDy=0;entryPerimeter=0;strokeColor=#FF3333;align=center;verticalAlign=middle;fontFamily=Helvetica;fontSize=11;fontColor=default;labelBackgroundColor=none;endArrow=none;" parent="1" edge="1">
          <mxGeometry relative="1" as="geometry">
            <Array as="points">
              <mxPoint x="905" y="3814" />
            </Array>
            <mxPoint x="1162.9050000000007" y="3432.7999999999993" as="targetPoint" />
          </mxGeometry>
        </mxCell>
        <mxCell id="ZiS1MG1Vd3PeNEByEQu3-348" style="edgeStyle=none;shape=connector;rounded=0;orthogonalLoop=1;jettySize=auto;html=1;entryX=0.361;entryY=0.94;entryDx=0;entryDy=0;entryPerimeter=0;strokeColor=#FF3333;align=center;verticalAlign=middle;fontFamily=Helvetica;fontSize=11;fontColor=default;labelBackgroundColor=none;endArrow=none;" parent="1" edge="1">
          <mxGeometry relative="1" as="geometry">
            <Array as="points">
              <mxPoint x="3038" y="6915" />
            </Array>
            <mxPoint x="3295.905" y="6533.799999999999" as="targetPoint" />
          </mxGeometry>
        </mxCell>
        <mxCell id="ZiS1MG1Vd3PeNEByEQu3-349" style="edgeStyle=none;shape=connector;rounded=0;orthogonalLoop=1;jettySize=auto;html=1;entryX=0.361;entryY=0.94;entryDx=0;entryDy=0;entryPerimeter=0;strokeColor=#FF3333;align=center;verticalAlign=middle;fontFamily=Helvetica;fontSize=11;fontColor=default;labelBackgroundColor=none;endArrow=none;" parent="1" edge="1">
          <mxGeometry relative="1" as="geometry">
            <Array as="points">
              <mxPoint x="1178" y="3605" />
            </Array>
            <mxPoint x="1435.9050000000002" y="3223.8" as="targetPoint" />
          </mxGeometry>
        </mxCell>
        <mxCell id="ZiS1MG1Vd3PeNEByEQu3-350" style="edgeStyle=none;shape=connector;rounded=0;orthogonalLoop=1;jettySize=auto;html=1;entryX=0.361;entryY=0.94;entryDx=0;entryDy=0;entryPerimeter=0;strokeColor=#FF3333;align=center;verticalAlign=middle;fontFamily=Helvetica;fontSize=11;fontColor=default;labelBackgroundColor=none;endArrow=none;" parent="1" edge="1">
          <mxGeometry relative="1" as="geometry">
            <Array as="points">
              <mxPoint x="898" y="2725" />
            </Array>
            <mxPoint x="1155.9050000000002" y="2343.8" as="targetPoint" />
          </mxGeometry>
        </mxCell>
        <mxCell id="ZiS1MG1Vd3PeNEByEQu3-351" style="edgeStyle=none;shape=connector;rounded=0;orthogonalLoop=1;jettySize=auto;html=1;entryX=0.361;entryY=0.94;entryDx=0;entryDy=0;entryPerimeter=0;strokeColor=#FF3333;align=center;verticalAlign=middle;fontFamily=Helvetica;fontSize=11;fontColor=default;labelBackgroundColor=none;endArrow=none;" parent="1" edge="1">
          <mxGeometry relative="1" as="geometry">
            <Array as="points">
              <mxPoint x="1170" y="2585" />
            </Array>
            <mxPoint x="1427.9050000000002" y="2203.8" as="targetPoint" />
          </mxGeometry>
        </mxCell>
        <mxCell id="ZiS1MG1Vd3PeNEByEQu3-352" style="edgeStyle=none;shape=connector;rounded=0;orthogonalLoop=1;jettySize=auto;html=1;entryX=0.361;entryY=0.94;entryDx=0;entryDy=0;entryPerimeter=0;strokeColor=#FF3333;align=center;verticalAlign=middle;fontFamily=Helvetica;fontSize=11;fontColor=default;labelBackgroundColor=none;endArrow=none;" parent="1" edge="1">
          <mxGeometry relative="1" as="geometry">
            <Array as="points">
              <mxPoint x="1165" y="3724" />
            </Array>
            <mxPoint x="1422.9050000000007" y="3342.7999999999993" as="targetPoint" />
          </mxGeometry>
        </mxCell>
        <mxCell id="ZiS1MG1Vd3PeNEByEQu3-353" style="edgeStyle=none;shape=connector;rounded=0;orthogonalLoop=1;jettySize=auto;html=1;entryX=0.361;entryY=0.94;entryDx=0;entryDy=0;entryPerimeter=0;strokeColor=#FF3333;align=center;verticalAlign=middle;fontFamily=Helvetica;fontSize=11;fontColor=default;labelBackgroundColor=none;endArrow=none;" parent="1" edge="1">
          <mxGeometry relative="1" as="geometry">
            <Array as="points">
              <mxPoint x="3298" y="6825" />
            </Array>
            <mxPoint x="3555.905" y="6443.799999999999" as="targetPoint" />
          </mxGeometry>
        </mxCell>
        <mxCell id="ZiS1MG1Vd3PeNEByEQu3-354" style="edgeStyle=none;shape=connector;rounded=0;orthogonalLoop=1;jettySize=auto;html=1;entryX=0.361;entryY=0.94;entryDx=0;entryDy=0;entryPerimeter=0;strokeColor=#FF3333;align=center;verticalAlign=middle;fontFamily=Helvetica;fontSize=11;fontColor=default;labelBackgroundColor=none;endArrow=none;" parent="1" edge="1">
          <mxGeometry relative="1" as="geometry">
            <Array as="points">
              <mxPoint x="1438" y="3515" />
            </Array>
            <mxPoint x="1695.9050000000002" y="3133.8" as="targetPoint" />
          </mxGeometry>
        </mxCell>
        <mxCell id="ZiS1MG1Vd3PeNEByEQu3-355" style="edgeStyle=none;shape=connector;rounded=0;orthogonalLoop=1;jettySize=auto;html=1;entryX=0.361;entryY=0.94;entryDx=0;entryDy=0;entryPerimeter=0;strokeColor=#FF3333;align=center;verticalAlign=middle;fontFamily=Helvetica;fontSize=11;fontColor=default;labelBackgroundColor=none;endArrow=none;" parent="1" edge="1">
          <mxGeometry relative="1" as="geometry">
            <Array as="points">
              <mxPoint x="1158" y="2635" />
            </Array>
            <mxPoint x="1415.9050000000002" y="2253.8" as="targetPoint" />
          </mxGeometry>
        </mxCell>
        <mxCell id="ZiS1MG1Vd3PeNEByEQu3-466" style="edgeStyle=none;shape=connector;rounded=0;orthogonalLoop=1;jettySize=auto;html=1;entryX=0.361;entryY=0.94;entryDx=0;entryDy=0;entryPerimeter=0;strokeColor=#FF3333;align=center;verticalAlign=middle;fontFamily=Helvetica;fontSize=11;fontColor=default;labelBackgroundColor=none;endArrow=none;" parent="1" edge="1">
          <mxGeometry relative="1" as="geometry">
            <Array as="points">
              <mxPoint x="610" y="1325" />
            </Array>
            <mxPoint x="867.9050000000002" y="943.8" as="targetPoint" />
          </mxGeometry>
        </mxCell>
        <mxCell id="ZiS1MG1Vd3PeNEByEQu3-467" style="edgeStyle=none;shape=connector;rounded=0;orthogonalLoop=1;jettySize=auto;html=1;entryX=0.361;entryY=0.94;entryDx=0;entryDy=0;entryPerimeter=0;strokeColor=#FF3333;align=center;verticalAlign=middle;fontFamily=Helvetica;fontSize=11;fontColor=default;labelBackgroundColor=none;endArrow=none;" parent="1" edge="1">
          <mxGeometry relative="1" as="geometry">
            <Array as="points">
              <mxPoint x="605" y="2464" />
            </Array>
            <mxPoint x="862.9050000000007" y="2082.7999999999993" as="targetPoint" />
          </mxGeometry>
        </mxCell>
        <mxCell id="ZiS1MG1Vd3PeNEByEQu3-468" style="edgeStyle=none;shape=connector;rounded=0;orthogonalLoop=1;jettySize=auto;html=1;entryX=0.361;entryY=0.94;entryDx=0;entryDy=0;entryPerimeter=0;strokeColor=#FF3333;align=center;verticalAlign=middle;fontFamily=Helvetica;fontSize=11;fontColor=default;labelBackgroundColor=none;endArrow=none;" parent="1" edge="1">
          <mxGeometry relative="1" as="geometry">
            <Array as="points">
              <mxPoint x="2738" y="5565" />
            </Array>
            <mxPoint x="2995.905" y="5183.799999999999" as="targetPoint" />
          </mxGeometry>
        </mxCell>
        <mxCell id="ZiS1MG1Vd3PeNEByEQu3-469" style="edgeStyle=none;shape=connector;rounded=0;orthogonalLoop=1;jettySize=auto;html=1;entryX=0.361;entryY=0.94;entryDx=0;entryDy=0;entryPerimeter=0;strokeColor=#FF3333;align=center;verticalAlign=middle;fontFamily=Helvetica;fontSize=11;fontColor=default;labelBackgroundColor=none;endArrow=none;" parent="1" edge="1">
          <mxGeometry relative="1" as="geometry">
            <Array as="points">
              <mxPoint x="878" y="2255" />
            </Array>
            <mxPoint x="1135.9050000000002" y="1873.8" as="targetPoint" />
          </mxGeometry>
        </mxCell>
        <mxCell id="ZiS1MG1Vd3PeNEByEQu3-470" style="edgeStyle=none;shape=connector;rounded=0;orthogonalLoop=1;jettySize=auto;html=1;entryX=0.361;entryY=0.94;entryDx=0;entryDy=0;entryPerimeter=0;strokeColor=#FF3333;align=center;verticalAlign=middle;fontFamily=Helvetica;fontSize=11;fontColor=default;labelBackgroundColor=none;endArrow=none;" parent="1" edge="1">
          <mxGeometry relative="1" as="geometry">
            <Array as="points">
              <mxPoint x="598" y="1375" />
            </Array>
            <mxPoint x="855.9050000000002" y="993.8" as="targetPoint" />
          </mxGeometry>
        </mxCell>
        <mxCell id="ZiS1MG1Vd3PeNEByEQu3-471" style="edgeStyle=none;shape=connector;rounded=0;orthogonalLoop=1;jettySize=auto;html=1;entryX=0.361;entryY=0.94;entryDx=0;entryDy=0;entryPerimeter=0;strokeColor=#FF3333;align=center;verticalAlign=middle;fontFamily=Helvetica;fontSize=11;fontColor=default;labelBackgroundColor=none;endArrow=none;" parent="1" edge="1">
          <mxGeometry relative="1" as="geometry">
            <Array as="points">
              <mxPoint x="870" y="1235" />
            </Array>
            <mxPoint x="1127.9050000000002" y="853.8" as="targetPoint" />
          </mxGeometry>
        </mxCell>
        <mxCell id="ZiS1MG1Vd3PeNEByEQu3-472" style="edgeStyle=none;shape=connector;rounded=0;orthogonalLoop=1;jettySize=auto;html=1;entryX=0.361;entryY=0.94;entryDx=0;entryDy=0;entryPerimeter=0;strokeColor=#FF3333;align=center;verticalAlign=middle;fontFamily=Helvetica;fontSize=11;fontColor=default;labelBackgroundColor=none;endArrow=none;" parent="1" edge="1">
          <mxGeometry relative="1" as="geometry">
            <Array as="points">
              <mxPoint x="865" y="2374" />
            </Array>
            <mxPoint x="1122.9050000000007" y="1992.7999999999993" as="targetPoint" />
          </mxGeometry>
        </mxCell>
        <mxCell id="ZiS1MG1Vd3PeNEByEQu3-473" style="edgeStyle=none;shape=connector;rounded=0;orthogonalLoop=1;jettySize=auto;html=1;entryX=0.361;entryY=0.94;entryDx=0;entryDy=0;entryPerimeter=0;strokeColor=#FF3333;align=center;verticalAlign=middle;fontFamily=Helvetica;fontSize=11;fontColor=default;labelBackgroundColor=none;endArrow=none;" parent="1" edge="1">
          <mxGeometry relative="1" as="geometry">
            <Array as="points">
              <mxPoint x="2998" y="5475" />
            </Array>
            <mxPoint x="3255.905" y="5093.799999999999" as="targetPoint" />
          </mxGeometry>
        </mxCell>
        <mxCell id="ZiS1MG1Vd3PeNEByEQu3-474" style="edgeStyle=none;shape=connector;rounded=0;orthogonalLoop=1;jettySize=auto;html=1;entryX=0.361;entryY=0.94;entryDx=0;entryDy=0;entryPerimeter=0;strokeColor=#FF3333;align=center;verticalAlign=middle;fontFamily=Helvetica;fontSize=11;fontColor=default;labelBackgroundColor=none;endArrow=none;" parent="1" edge="1">
          <mxGeometry relative="1" as="geometry">
            <Array as="points">
              <mxPoint x="1138" y="2165" />
            </Array>
            <mxPoint x="1395.9050000000002" y="1783.8" as="targetPoint" />
          </mxGeometry>
        </mxCell>
        <mxCell id="ZiS1MG1Vd3PeNEByEQu3-475" style="edgeStyle=none;shape=connector;rounded=0;orthogonalLoop=1;jettySize=auto;html=1;entryX=0.361;entryY=0.94;entryDx=0;entryDy=0;entryPerimeter=0;strokeColor=#FF3333;align=center;verticalAlign=middle;fontFamily=Helvetica;fontSize=11;fontColor=default;labelBackgroundColor=none;endArrow=none;" parent="1" edge="1">
          <mxGeometry relative="1" as="geometry">
            <Array as="points">
              <mxPoint x="858" y="1285" />
            </Array>
            <mxPoint x="1115.9050000000002" y="903.8" as="targetPoint" />
          </mxGeometry>
        </mxCell>
        <mxCell id="ZiS1MG1Vd3PeNEByEQu3-602" value="uni_student" style="swimlane;fontStyle=0;childLayout=stackLayout;horizontal=1;startSize=26;fillColor=none;horizontalStack=0;resizeParent=1;resizeParentMax=0;resizeLast=0;collapsible=1;marginBottom=0;whiteSpace=wrap;html=1;" parent="1" vertex="1">
          <mxGeometry x="-40" y="110" width="140" height="70" as="geometry" />
        </mxCell>
        <mxCell id="ZiS1MG1Vd3PeNEByEQu3-606" value="feature_selection_screen" style="swimlane;fontStyle=0;childLayout=stackLayout;horizontal=1;startSize=26;fillColor=none;horizontalStack=0;resizeParent=1;resizeParentMax=0;resizeLast=0;collapsible=1;marginBottom=0;whiteSpace=wrap;html=1;" parent="1" vertex="1">
          <mxGeometry x="-270" y="385" width="140" height="70" as="geometry" />
        </mxCell>
        <mxCell id="ZiS1MG1Vd3PeNEByEQu3-608" value="" style="endArrow=none;html=1;rounded=0;exitX=1;exitY=0.5;exitDx=0;exitDy=0;entryX=0;entryY=0.5;entryDx=0;entryDy=0;" parent="1" source="ZiS1MG1Vd3PeNEByEQu3-606" target="ZiS1MG1Vd3PeNEByEQu3-610" edge="1">
          <mxGeometry width="50" height="50" relative="1" as="geometry">
            <mxPoint x="-120" y="420" as="sourcePoint" />
            <mxPoint x="-40" y="445" as="targetPoint" />
          </mxGeometry>
        </mxCell>
        <mxCell id="ZiS1MG1Vd3PeNEByEQu3-622" style="edgeStyle=none;shape=connector;rounded=0;orthogonalLoop=1;jettySize=auto;html=1;entryX=0;entryY=0.5;entryDx=0;entryDy=0;strokeColor=default;align=center;verticalAlign=middle;fontFamily=Helvetica;fontSize=11;fontColor=default;labelBackgroundColor=default;endArrow=none;" parent="1" source="ZiS1MG1Vd3PeNEByEQu3-609" target="ZiS1MG1Vd3PeNEByEQu3-606" edge="1">
          <mxGeometry relative="1" as="geometry" />
        </mxCell>
        <mxCell id="ZiS1MG1Vd3PeNEByEQu3-609" value="&lt;div&gt;main_forum_screen&lt;/div&gt;" style="swimlane;fontStyle=0;childLayout=stackLayout;horizontal=1;startSize=26;fillColor=none;horizontalStack=0;resizeParent=1;resizeParentMax=0;resizeLast=0;collapsible=1;marginBottom=0;whiteSpace=wrap;html=1;" parent="1" vertex="1">
          <mxGeometry x="-570" y="385" width="140" height="70" as="geometry" />
        </mxCell>
        <mxCell id="HVmYjBGwmGESF4fvWfZF-36" style="edgeStyle=none;shape=connector;rounded=0;orthogonalLoop=1;jettySize=auto;html=1;exitX=1;exitY=0.25;exitDx=0;exitDy=0;strokeColor=default;align=center;verticalAlign=middle;fontFamily=Helvetica;fontSize=11;fontColor=default;labelBackgroundColor=default;endArrow=none;entryX=0;entryY=0.75;entryDx=0;entryDy=0;" edge="1" parent="1" source="ZiS1MG1Vd3PeNEByEQu3-610" target="HVmYjBGwmGESF4fvWfZF-35">
          <mxGeometry relative="1" as="geometry">
            <mxPoint x="180" y="300" as="targetPoint" />
          </mxGeometry>
        </mxCell>
        <mxCell id="ZiS1MG1Vd3PeNEByEQu3-610" value="&lt;div&gt;starting_news_screen&lt;/div&gt;" style="swimlane;fontStyle=0;childLayout=stackLayout;horizontal=1;startSize=26;fillColor=none;horizontalStack=0;resizeParent=1;resizeParentMax=0;resizeLast=0;collapsible=1;marginBottom=0;whiteSpace=wrap;html=1;" parent="1" vertex="1">
          <mxGeometry x="-40" y="385" width="140" height="70" as="geometry" />
        </mxCell>
        <mxCell id="ZiS1MG1Vd3PeNEByEQu3-611" style="edgeStyle=none;shape=connector;rounded=0;orthogonalLoop=1;jettySize=auto;html=1;exitX=0;exitY=1;exitDx=0;exitDy=0;entryX=0;entryY=0.75;entryDx=0;entryDy=0;strokeColor=default;align=center;verticalAlign=middle;fontFamily=Helvetica;fontSize=11;fontColor=default;labelBackgroundColor=default;endArrow=none;" parent="1" source="ZiS1MG1Vd3PeNEByEQu3-610" target="ZiS1MG1Vd3PeNEByEQu3-610" edge="1">
          <mxGeometry relative="1" as="geometry" />
        </mxCell>
        <mxCell id="ZiS1MG1Vd3PeNEByEQu3-613" style="edgeStyle=none;shape=connector;rounded=0;orthogonalLoop=1;jettySize=auto;html=1;strokeColor=default;align=center;verticalAlign=middle;fontFamily=Helvetica;fontSize=11;fontColor=default;labelBackgroundColor=default;endArrow=none;entryX=0.25;entryY=1;entryDx=0;entryDy=0;exitX=1;exitY=0.5;exitDx=0;exitDy=0;" parent="1" source="ZiS1MG1Vd3PeNEByEQu3-612" target="ZiS1MG1Vd3PeNEByEQu3-610" edge="1">
          <mxGeometry relative="1" as="geometry">
            <mxPoint x="-115" y="525" as="sourcePoint" />
            <mxPoint x="-20" y="460" as="targetPoint" />
          </mxGeometry>
        </mxCell>
        <mxCell id="ZiS1MG1Vd3PeNEByEQu3-612" value="coffee_bar_screen" style="swimlane;fontStyle=0;childLayout=stackLayout;horizontal=1;startSize=26;fillColor=none;horizontalStack=0;resizeParent=1;resizeParentMax=0;resizeLast=0;collapsible=1;marginBottom=0;whiteSpace=wrap;html=1;" parent="1" vertex="1">
          <mxGeometry x="-270" y="525" width="140" height="70" as="geometry" />
        </mxCell>
        <mxCell id="ZiS1MG1Vd3PeNEByEQu3-614" value="uni_info_starting_screen" style="swimlane;fontStyle=0;childLayout=stackLayout;horizontal=1;startSize=26;fillColor=none;horizontalStack=0;resizeParent=1;resizeParentMax=0;resizeLast=0;collapsible=1;marginBottom=0;whiteSpace=wrap;html=1;" parent="1" vertex="1">
          <mxGeometry x="-30" y="600" width="140" height="70" as="geometry" />
        </mxCell>
        <mxCell id="ZiS1MG1Vd3PeNEByEQu3-616" style="edgeStyle=none;shape=connector;rounded=0;orthogonalLoop=1;jettySize=auto;html=1;strokeColor=default;align=center;verticalAlign=middle;fontFamily=Helvetica;fontSize=11;fontColor=default;labelBackgroundColor=default;endArrow=none;entryX=0.5;entryY=1;entryDx=0;entryDy=0;" parent="1" source="ZiS1MG1Vd3PeNEByEQu3-614" target="ZiS1MG1Vd3PeNEByEQu3-610" edge="1">
          <mxGeometry relative="1" as="geometry">
            <mxPoint x="20" y="460" as="targetPoint" />
          </mxGeometry>
        </mxCell>
        <mxCell id="ZiS1MG1Vd3PeNEByEQu3-618" style="edgeStyle=none;shape=connector;rounded=0;orthogonalLoop=1;jettySize=auto;html=1;entryX=1;entryY=0.75;entryDx=0;entryDy=0;strokeColor=default;align=center;verticalAlign=middle;fontFamily=Helvetica;fontSize=11;fontColor=default;labelBackgroundColor=default;endArrow=none;exitX=0;exitY=0.25;exitDx=0;exitDy=0;" parent="1" source="ZiS1MG1Vd3PeNEByEQu3-617" target="ZiS1MG1Vd3PeNEByEQu3-610" edge="1">
          <mxGeometry relative="1" as="geometry">
            <mxPoint x="240" y="488.6538461538462" as="sourcePoint" />
          </mxGeometry>
        </mxCell>
        <mxCell id="ZiS1MG1Vd3PeNEByEQu3-617" value="bus_schedule_starting_screen" style="swimlane;fontStyle=0;childLayout=stackLayout;horizontal=1;startSize=26;fillColor=none;horizontalStack=0;resizeParent=1;resizeParentMax=0;resizeLast=0;collapsible=1;marginBottom=0;whiteSpace=wrap;html=1;" parent="1" vertex="1">
          <mxGeometry x="250" y="540" width="170" height="70" as="geometry" />
        </mxCell>
        <mxCell id="ZiS1MG1Vd3PeNEByEQu3-621" style="edgeStyle=none;shape=connector;rounded=0;orthogonalLoop=1;jettySize=auto;html=1;entryX=0.424;entryY=-0.01;entryDx=0;entryDy=0;strokeColor=default;align=center;verticalAlign=middle;fontFamily=Helvetica;fontSize=11;fontColor=default;labelBackgroundColor=default;endArrow=none;entryPerimeter=0;" parent="1" source="ZiS1MG1Vd3PeNEByEQu3-619" target="ZiS1MG1Vd3PeNEByEQu3-606" edge="1">
          <mxGeometry relative="1" as="geometry" />
        </mxCell>
        <mxCell id="ZiS1MG1Vd3PeNEByEQu3-619" value="project_finder_screen" style="swimlane;fontStyle=0;childLayout=stackLayout;horizontal=1;startSize=26;fillColor=none;horizontalStack=0;resizeParent=1;resizeParentMax=0;resizeLast=0;collapsible=1;marginBottom=0;whiteSpace=wrap;html=1;" parent="1" vertex="1">
          <mxGeometry x="-390" y="100" width="140" height="70" as="geometry" />
        </mxCell>
        <mxCell id="ZiS1MG1Vd3PeNEByEQu3-624" style="edgeStyle=none;shape=connector;rounded=0;orthogonalLoop=1;jettySize=auto;html=1;entryX=0.25;entryY=1;entryDx=0;entryDy=0;strokeColor=default;align=center;verticalAlign=middle;fontFamily=Helvetica;fontSize=11;fontColor=default;labelBackgroundColor=default;endArrow=none;" parent="1" source="ZiS1MG1Vd3PeNEByEQu3-623" target="ZiS1MG1Vd3PeNEByEQu3-606" edge="1">
          <mxGeometry relative="1" as="geometry" />
        </mxCell>
        <mxCell id="ZiS1MG1Vd3PeNEByEQu3-623" value="tasks_screen" style="swimlane;fontStyle=0;childLayout=stackLayout;horizontal=1;startSize=26;fillColor=none;horizontalStack=0;resizeParent=1;resizeParentMax=0;resizeLast=0;collapsible=1;marginBottom=0;whiteSpace=wrap;html=1;" parent="1" vertex="1">
          <mxGeometry x="-720" y="540" width="140" height="70" as="geometry" />
        </mxCell>
        <mxCell id="HVmYjBGwmGESF4fvWfZF-1" value="" style="endArrow=none;html=1;rounded=0;entryX=0.5;entryY=1;entryDx=0;entryDy=0;exitX=0.5;exitY=0;exitDx=0;exitDy=0;" edge="1" parent="1" source="ZiS1MG1Vd3PeNEByEQu3-610" target="ZiS1MG1Vd3PeNEByEQu3-602">
          <mxGeometry width="50" height="50" relative="1" as="geometry">
            <mxPoint x="-190" y="390" as="sourcePoint" />
            <mxPoint x="-140" y="340" as="targetPoint" />
          </mxGeometry>
        </mxCell>
        <mxCell id="HVmYjBGwmGESF4fvWfZF-2" value="food_schedule_screen" style="swimlane;fontStyle=0;childLayout=stackLayout;horizontal=1;startSize=26;fillColor=none;horizontalStack=0;resizeParent=1;resizeParentMax=0;resizeLast=0;collapsible=1;marginBottom=0;whiteSpace=wrap;html=1;" vertex="1" parent="1">
          <mxGeometry x="-210" y="700" width="140" height="70" as="geometry" />
        </mxCell>
        <mxCell id="HVmYjBGwmGESF4fvWfZF-3" style="edgeStyle=none;shape=connector;rounded=0;orthogonalLoop=1;jettySize=auto;html=1;strokeColor=default;align=center;verticalAlign=middle;fontFamily=Helvetica;fontSize=11;fontColor=default;labelBackgroundColor=default;endArrow=none;exitX=1;exitY=0;exitDx=0;exitDy=0;" edge="1" parent="1" source="HVmYjBGwmGESF4fvWfZF-2">
          <mxGeometry relative="1" as="geometry">
            <mxPoint x="-230" y="710" as="sourcePoint" />
            <mxPoint x="-30" y="660" as="targetPoint" />
          </mxGeometry>
        </mxCell>
        <mxCell id="HVmYjBGwmGESF4fvWfZF-21" style="edgeStyle=none;shape=connector;rounded=0;orthogonalLoop=1;jettySize=auto;html=1;exitX=0;exitY=0.75;exitDx=0;exitDy=0;entryX=1;entryY=0.75;entryDx=0;entryDy=0;strokeColor=default;align=center;verticalAlign=middle;fontFamily=Helvetica;fontSize=11;fontColor=default;labelBackgroundColor=default;endArrow=none;" edge="1" parent="1" source="HVmYjBGwmGESF4fvWfZF-4" target="HVmYjBGwmGESF4fvWfZF-8">
          <mxGeometry relative="1" as="geometry" />
        </mxCell>
        <mxCell id="HVmYjBGwmGESF4fvWfZF-4" value="database_UNINFO" style="swimlane;fontStyle=0;childLayout=stackLayout;horizontal=1;startSize=26;fillColor=none;horizontalStack=0;resizeParent=1;resizeParentMax=0;resizeLast=0;collapsible=1;marginBottom=0;whiteSpace=wrap;html=1;" vertex="1" parent="1">
          <mxGeometry x="-190" y="940" width="140" height="70" as="geometry" />
        </mxCell>
        <mxCell id="HVmYjBGwmGESF4fvWfZF-6" value="filter_screen" style="swimlane;fontStyle=0;childLayout=stackLayout;horizontal=1;startSize=26;fillColor=none;horizontalStack=0;resizeParent=1;resizeParentMax=0;resizeLast=0;collapsible=1;marginBottom=0;whiteSpace=wrap;html=1;" vertex="1" parent="1">
          <mxGeometry x="-370" y="810" width="140" height="70" as="geometry" />
        </mxCell>
        <mxCell id="HVmYjBGwmGESF4fvWfZF-8" value="critic_screen" style="swimlane;fontStyle=0;childLayout=stackLayout;horizontal=1;startSize=26;fillColor=none;horizontalStack=0;resizeParent=1;resizeParentMax=0;resizeLast=0;collapsible=1;marginBottom=0;whiteSpace=wrap;html=1;" vertex="1" parent="1">
          <mxGeometry x="-400" y="970" width="140" height="70" as="geometry" />
        </mxCell>
        <mxCell id="HVmYjBGwmGESF4fvWfZF-23" style="edgeStyle=none;shape=connector;rounded=0;orthogonalLoop=1;jettySize=auto;html=1;exitX=0.25;exitY=0;exitDx=0;exitDy=0;entryX=0.5;entryY=1;entryDx=0;entryDy=0;strokeColor=default;align=center;verticalAlign=middle;fontFamily=Helvetica;fontSize=11;fontColor=default;labelBackgroundColor=default;endArrow=none;" edge="1" parent="1" source="HVmYjBGwmGESF4fvWfZF-11" target="ZiS1MG1Vd3PeNEByEQu3-614">
          <mxGeometry relative="1" as="geometry" />
        </mxCell>
        <mxCell id="HVmYjBGwmGESF4fvWfZF-11" value="gym_schedule_screen" style="swimlane;fontStyle=0;childLayout=stackLayout;horizontal=1;startSize=26;fillColor=none;horizontalStack=0;resizeParent=1;resizeParentMax=0;resizeLast=0;collapsible=1;marginBottom=0;whiteSpace=wrap;html=1;" vertex="1" parent="1">
          <mxGeometry x="-20" y="760" width="140" height="70" as="geometry" />
        </mxCell>
        <mxCell id="HVmYjBGwmGESF4fvWfZF-12" value="free_pitch_schedule_screen" style="swimlane;fontStyle=0;childLayout=stackLayout;horizontal=1;startSize=26;fillColor=none;horizontalStack=0;resizeParent=1;resizeParentMax=0;resizeLast=0;collapsible=1;marginBottom=0;whiteSpace=wrap;html=1;" vertex="1" parent="1">
          <mxGeometry x="-20" y="870" width="170" height="70" as="geometry" />
        </mxCell>
        <mxCell id="HVmYjBGwmGESF4fvWfZF-14" value="Extends" style="endArrow=block;endSize=16;endFill=0;html=1;rounded=0;entryX=0.5;entryY=1;entryDx=0;entryDy=0;exitX=0.394;exitY=0.043;exitDx=0;exitDy=0;exitPerimeter=0;" edge="1" parent="1" source="HVmYjBGwmGESF4fvWfZF-12" target="HVmYjBGwmGESF4fvWfZF-11">
          <mxGeometry width="160" relative="1" as="geometry">
            <mxPoint x="-190" y="1120" as="sourcePoint" />
            <mxPoint x="-40" y="1070" as="targetPoint" />
          </mxGeometry>
        </mxCell>
        <mxCell id="HVmYjBGwmGESF4fvWfZF-16" value="" style="endArrow=diamondThin;endFill=1;endSize=24;html=1;rounded=0;entryX=0.75;entryY=1;entryDx=0;entryDy=0;exitX=0.75;exitY=0;exitDx=0;exitDy=0;" edge="1" parent="1" source="HVmYjBGwmGESF4fvWfZF-6">
          <mxGeometry width="160" relative="1" as="geometry">
            <mxPoint x="-210" y="920" as="sourcePoint" />
            <mxPoint x="-195" y="770" as="targetPoint" />
          </mxGeometry>
        </mxCell>
        <mxCell id="HVmYjBGwmGESF4fvWfZF-17" value="Extends" style="endArrow=block;endSize=16;endFill=0;html=1;rounded=0;exitX=0.5;exitY=0;exitDx=0;exitDy=0;" edge="1" parent="1" source="HVmYjBGwmGESF4fvWfZF-8">
          <mxGeometry width="160" relative="1" as="geometry">
            <mxPoint x="-320" y="900" as="sourcePoint" />
            <mxPoint x="-290" y="880" as="targetPoint" />
          </mxGeometry>
        </mxCell>
        <mxCell id="HVmYjBGwmGESF4fvWfZF-19" style="edgeStyle=none;shape=connector;rounded=0;orthogonalLoop=1;jettySize=auto;html=1;strokeColor=default;align=center;verticalAlign=middle;fontFamily=Helvetica;fontSize=11;fontColor=default;labelBackgroundColor=default;endArrow=none;exitX=1;exitY=1;exitDx=0;exitDy=0;entryX=0;entryY=0;entryDx=0;entryDy=0;" edge="1" parent="1" source="HVmYjBGwmGESF4fvWfZF-6" target="HVmYjBGwmGESF4fvWfZF-4">
          <mxGeometry relative="1" as="geometry">
            <mxPoint x="-50" y="810" as="sourcePoint" />
            <mxPoint x="-10" y="770" as="targetPoint" />
          </mxGeometry>
        </mxCell>
        <mxCell id="HVmYjBGwmGESF4fvWfZF-25" style="edgeStyle=none;shape=connector;rounded=0;orthogonalLoop=1;jettySize=auto;html=1;exitX=0;exitY=0;exitDx=0;exitDy=0;entryX=1;entryY=1;entryDx=0;entryDy=0;strokeColor=default;align=center;verticalAlign=middle;fontFamily=Helvetica;fontSize=11;fontColor=default;labelBackgroundColor=default;endArrow=none;" edge="1" parent="1" source="HVmYjBGwmGESF4fvWfZF-24" target="ZiS1MG1Vd3PeNEByEQu3-614">
          <mxGeometry relative="1" as="geometry" />
        </mxCell>
        <mxCell id="HVmYjBGwmGESF4fvWfZF-34" style="edgeStyle=none;shape=connector;rounded=0;orthogonalLoop=1;jettySize=auto;html=1;exitX=0.75;exitY=0;exitDx=0;exitDy=0;strokeColor=default;align=center;verticalAlign=middle;fontFamily=Helvetica;fontSize=11;fontColor=default;labelBackgroundColor=default;endArrow=none;entryX=0;entryY=1;entryDx=0;entryDy=0;" edge="1" parent="1" source="HVmYjBGwmGESF4fvWfZF-24" target="HVmYjBGwmGESF4fvWfZF-33">
          <mxGeometry relative="1" as="geometry">
            <mxPoint x="300" y="750" as="targetPoint" />
          </mxGeometry>
        </mxCell>
        <mxCell id="HVmYjBGwmGESF4fvWfZF-24" value="map_uni_screen" style="swimlane;fontStyle=0;childLayout=stackLayout;horizontal=1;startSize=26;fillColor=none;horizontalStack=0;resizeParent=1;resizeParentMax=0;resizeLast=0;collapsible=1;marginBottom=0;whiteSpace=wrap;html=1;" vertex="1" parent="1">
          <mxGeometry x="160" y="800" width="140" height="70" as="geometry" />
        </mxCell>
        <mxCell id="HVmYjBGwmGESF4fvWfZF-27" style="edgeStyle=none;shape=connector;rounded=0;orthogonalLoop=1;jettySize=auto;html=1;exitX=0.75;exitY=0;exitDx=0;exitDy=0;entryX=0.25;entryY=1;entryDx=0;entryDy=0;strokeColor=default;align=center;verticalAlign=middle;fontFamily=Helvetica;fontSize=11;fontColor=default;labelBackgroundColor=default;endArrow=none;" edge="1" parent="1" source="HVmYjBGwmGESF4fvWfZF-26" target="HVmYjBGwmGESF4fvWfZF-24">
          <mxGeometry relative="1" as="geometry" />
        </mxCell>
        <mxCell id="HVmYjBGwmGESF4fvWfZF-32" style="edgeStyle=none;shape=connector;rounded=0;orthogonalLoop=1;jettySize=auto;html=1;exitX=1;exitY=0.5;exitDx=0;exitDy=0;entryX=0;entryY=0.75;entryDx=0;entryDy=0;strokeColor=default;align=center;verticalAlign=middle;fontFamily=Helvetica;fontSize=11;fontColor=default;labelBackgroundColor=default;endArrow=none;" edge="1" parent="1" source="HVmYjBGwmGESF4fvWfZF-26" target="HVmYjBGwmGESF4fvWfZF-30">
          <mxGeometry relative="1" as="geometry" />
        </mxCell>
        <mxCell id="HVmYjBGwmGESF4fvWfZF-96" style="edgeStyle=none;shape=connector;rounded=0;orthogonalLoop=1;jettySize=auto;html=1;exitX=0;exitY=0.75;exitDx=0;exitDy=0;entryX=1;entryY=1;entryDx=0;entryDy=0;strokeColor=default;align=center;verticalAlign=middle;fontFamily=Helvetica;fontSize=11;fontColor=default;labelBackgroundColor=default;endArrow=none;" edge="1" parent="1" source="HVmYjBGwmGESF4fvWfZF-26" target="HVmYjBGwmGESF4fvWfZF-94">
          <mxGeometry relative="1" as="geometry" />
        </mxCell>
        <mxCell id="HVmYjBGwmGESF4fvWfZF-26" value="api_map" style="swimlane;fontStyle=0;childLayout=stackLayout;horizontal=1;startSize=26;fillColor=none;horizontalStack=0;resizeParent=1;resizeParentMax=0;resizeLast=0;collapsible=1;marginBottom=0;whiteSpace=wrap;html=1;" vertex="1" parent="1">
          <mxGeometry x="75" y="1060" width="140" height="70" as="geometry" />
        </mxCell>
        <mxCell id="HVmYjBGwmGESF4fvWfZF-28" value="result_search_screen" style="swimlane;fontStyle=0;childLayout=stackLayout;horizontal=1;startSize=26;fillColor=none;horizontalStack=0;resizeParent=1;resizeParentMax=0;resizeLast=0;collapsible=1;marginBottom=0;whiteSpace=wrap;html=1;" vertex="1" parent="1">
          <mxGeometry x="245" y="920" width="140" height="70" as="geometry" />
        </mxCell>
        <mxCell id="HVmYjBGwmGESF4fvWfZF-29" value="" style="endArrow=diamondThin;endFill=1;endSize=24;html=1;rounded=0;strokeColor=default;align=center;verticalAlign=middle;fontFamily=Helvetica;fontSize=11;fontColor=default;labelBackgroundColor=default;edgeStyle=none;entryX=0.75;entryY=1;entryDx=0;entryDy=0;exitX=0.25;exitY=0;exitDx=0;exitDy=0;" edge="1" parent="1" source="HVmYjBGwmGESF4fvWfZF-28" target="HVmYjBGwmGESF4fvWfZF-24">
          <mxGeometry width="160" relative="1" as="geometry">
            <mxPoint x="-80" y="730" as="sourcePoint" />
            <mxPoint x="80" y="730" as="targetPoint" />
          </mxGeometry>
        </mxCell>
        <mxCell id="HVmYjBGwmGESF4fvWfZF-30" value="details_classroom_screen" style="swimlane;fontStyle=0;childLayout=stackLayout;horizontal=1;startSize=26;fillColor=none;horizontalStack=0;resizeParent=1;resizeParentMax=0;resizeLast=0;collapsible=1;marginBottom=0;whiteSpace=wrap;html=1;" vertex="1" parent="1">
          <mxGeometry x="330" y="1029" width="140" height="70" as="geometry" />
        </mxCell>
        <mxCell id="HVmYjBGwmGESF4fvWfZF-31" value="" style="endArrow=diamondThin;endFill=1;endSize=24;html=1;rounded=0;strokeColor=default;align=center;verticalAlign=middle;fontFamily=Helvetica;fontSize=11;fontColor=default;labelBackgroundColor=default;edgeStyle=none;entryX=1;entryY=1;entryDx=0;entryDy=0;exitX=0.636;exitY=0.057;exitDx=0;exitDy=0;exitPerimeter=0;" edge="1" parent="1" source="HVmYjBGwmGESF4fvWfZF-30" target="HVmYjBGwmGESF4fvWfZF-28">
          <mxGeometry width="160" relative="1" as="geometry">
            <mxPoint x="550" y="980" as="sourcePoint" />
            <mxPoint x="535" y="930" as="targetPoint" />
          </mxGeometry>
        </mxCell>
        <mxCell id="HVmYjBGwmGESF4fvWfZF-33" value="fail_message_screen" style="swimlane;fontStyle=0;childLayout=stackLayout;horizontal=1;startSize=26;fillColor=none;horizontalStack=0;resizeParent=1;resizeParentMax=0;resizeLast=0;collapsible=1;marginBottom=0;whiteSpace=wrap;html=1;" vertex="1" parent="1">
          <mxGeometry x="274" y="690" width="140" height="70" as="geometry" />
        </mxCell>
        <mxCell id="HVmYjBGwmGESF4fvWfZF-35" value="liveevents_starting_screen" style="swimlane;fontStyle=0;childLayout=stackLayout;horizontal=1;startSize=26;fillColor=none;horizontalStack=0;resizeParent=1;resizeParentMax=0;resizeLast=0;collapsible=1;marginBottom=0;whiteSpace=wrap;html=1;" vertex="1" parent="1">
          <mxGeometry x="340" y="230" width="170" height="70" as="geometry" />
        </mxCell>
        <mxCell id="HVmYjBGwmGESF4fvWfZF-37" value="result_events_screen" style="swimlane;fontStyle=0;childLayout=stackLayout;horizontal=1;startSize=26;fillColor=none;horizontalStack=0;resizeParent=1;resizeParentMax=0;resizeLast=0;collapsible=1;marginBottom=0;whiteSpace=wrap;html=1;" vertex="1" parent="1">
          <mxGeometry x="544" y="120" width="170" height="70" as="geometry" />
        </mxCell>
        <mxCell id="HVmYjBGwmGESF4fvWfZF-38" value="" style="endArrow=diamondThin;endFill=1;endSize=24;html=1;rounded=0;strokeColor=default;align=center;verticalAlign=middle;fontFamily=Helvetica;fontSize=11;fontColor=default;labelBackgroundColor=default;edgeStyle=none;entryX=1;entryY=0;entryDx=0;entryDy=0;exitX=0;exitY=1;exitDx=0;exitDy=0;" edge="1" parent="1" source="HVmYjBGwmGESF4fvWfZF-37" target="HVmYjBGwmGESF4fvWfZF-35">
          <mxGeometry width="160" relative="1" as="geometry">
            <mxPoint x="200" y="350" as="sourcePoint" />
            <mxPoint x="360" y="350" as="targetPoint" />
          </mxGeometry>
        </mxCell>
        <mxCell id="HVmYjBGwmGESF4fvWfZF-40" style="edgeStyle=none;shape=connector;rounded=0;orthogonalLoop=1;jettySize=auto;html=1;exitX=1;exitY=1;exitDx=0;exitDy=0;entryX=0;entryY=0.5;entryDx=0;entryDy=0;strokeColor=default;align=center;verticalAlign=middle;fontFamily=Helvetica;fontSize=11;fontColor=default;labelBackgroundColor=default;endArrow=none;" edge="1" parent="1" source="HVmYjBGwmGESF4fvWfZF-39" target="HVmYjBGwmGESF4fvWfZF-37">
          <mxGeometry relative="1" as="geometry" />
        </mxCell>
        <mxCell id="HVmYjBGwmGESF4fvWfZF-44" style="edgeStyle=none;shape=connector;rounded=0;orthogonalLoop=1;jettySize=auto;html=1;exitX=1;exitY=0.25;exitDx=0;exitDy=0;entryX=0;entryY=0.25;entryDx=0;entryDy=0;strokeColor=default;align=center;verticalAlign=middle;fontFamily=Helvetica;fontSize=11;fontColor=default;labelBackgroundColor=default;endArrow=none;" edge="1" parent="1" source="HVmYjBGwmGESF4fvWfZF-39">
          <mxGeometry relative="1" as="geometry">
            <mxPoint x="780" y="17.5" as="targetPoint" />
          </mxGeometry>
        </mxCell>
        <mxCell id="HVmYjBGwmGESF4fvWfZF-39" value="liveevents_api" style="swimlane;fontStyle=0;childLayout=stackLayout;horizontal=1;startSize=26;fillColor=none;horizontalStack=0;resizeParent=1;resizeParentMax=0;resizeLast=0;collapsible=1;marginBottom=0;whiteSpace=wrap;html=1;" vertex="1" parent="1">
          <mxGeometry x="380" y="20" width="140" height="70" as="geometry" />
        </mxCell>
        <mxCell id="HVmYjBGwmGESF4fvWfZF-41" value="details_event_screen" style="swimlane;fontStyle=0;childLayout=stackLayout;horizontal=1;startSize=26;fillColor=none;horizontalStack=0;resizeParent=1;resizeParentMax=0;resizeLast=0;collapsible=1;marginBottom=0;whiteSpace=wrap;html=1;" vertex="1" parent="1">
          <mxGeometry x="780" y="-12.5" width="170" height="70" as="geometry" />
        </mxCell>
        <mxCell id="HVmYjBGwmGESF4fvWfZF-43" value="Extends" style="endArrow=block;endSize=16;endFill=0;html=1;rounded=0;entryX=1;entryY=0.25;entryDx=0;entryDy=0;exitX=0;exitY=0.75;exitDx=0;exitDy=0;" edge="1" parent="1" target="HVmYjBGwmGESF4fvWfZF-37">
          <mxGeometry width="160" relative="1" as="geometry">
            <mxPoint x="780" y="52.5" as="sourcePoint" />
            <mxPoint x="653" y="208" as="targetPoint" />
          </mxGeometry>
        </mxCell>
        <mxCell id="HVmYjBGwmGESF4fvWfZF-45" value="error_message_details_screen" style="swimlane;fontStyle=0;childLayout=stackLayout;horizontal=1;startSize=26;fillColor=none;horizontalStack=0;resizeParent=1;resizeParentMax=0;resizeLast=0;collapsible=1;marginBottom=0;whiteSpace=wrap;html=1;" vertex="1" parent="1">
          <mxGeometry x="650" y="260" width="170" height="70" as="geometry" />
        </mxCell>
        <mxCell id="HVmYjBGwmGESF4fvWfZF-46" value="" style="endArrow=diamondThin;endFill=1;endSize=24;html=1;rounded=0;strokeColor=default;align=center;verticalAlign=middle;fontFamily=Helvetica;fontSize=11;fontColor=default;labelBackgroundColor=default;edgeStyle=none;" edge="1" parent="1" source="HVmYjBGwmGESF4fvWfZF-45">
          <mxGeometry width="160" relative="1" as="geometry">
            <mxPoint x="250" y="310" as="sourcePoint" />
            <mxPoint x="660" y="190" as="targetPoint" />
          </mxGeometry>
        </mxCell>
        <mxCell id="HVmYjBGwmGESF4fvWfZF-47" value="" style="endArrow=diamondThin;endFill=1;endSize=24;html=1;rounded=0;strokeColor=default;align=center;verticalAlign=middle;fontFamily=Helvetica;fontSize=11;fontColor=default;labelBackgroundColor=default;edgeStyle=none;entryX=0.25;entryY=0;entryDx=0;entryDy=0;exitX=0.75;exitY=1;exitDx=0;exitDy=0;" edge="1" parent="1" source="HVmYjBGwmGESF4fvWfZF-48" target="HVmYjBGwmGESF4fvWfZF-35">
          <mxGeometry width="160" relative="1" as="geometry">
            <mxPoint x="360" y="170" as="sourcePoint" />
            <mxPoint x="410" y="310" as="targetPoint" />
          </mxGeometry>
        </mxCell>
        <mxCell id="HVmYjBGwmGESF4fvWfZF-48" value="error_no_events_screen" style="swimlane;fontStyle=0;childLayout=stackLayout;horizontal=1;startSize=26;fillColor=none;horizontalStack=0;resizeParent=1;resizeParentMax=0;resizeLast=0;collapsible=1;marginBottom=0;whiteSpace=wrap;html=1;" vertex="1" parent="1">
          <mxGeometry x="215" y="120" width="170" height="70" as="geometry" />
        </mxCell>
        <mxCell id="HVmYjBGwmGESF4fvWfZF-49" value="project_screen" style="swimlane;fontStyle=0;childLayout=stackLayout;horizontal=1;startSize=26;fillColor=none;horizontalStack=0;resizeParent=1;resizeParentMax=0;resizeLast=0;collapsible=1;marginBottom=0;whiteSpace=wrap;html=1;" vertex="1" parent="1">
          <mxGeometry x="-610" y="30" width="140" height="70" as="geometry" />
        </mxCell>
        <mxCell id="HVmYjBGwmGESF4fvWfZF-50" value="" style="endArrow=diamondThin;endFill=1;endSize=24;html=1;rounded=0;strokeColor=default;align=center;verticalAlign=middle;fontFamily=Helvetica;fontSize=11;fontColor=default;labelBackgroundColor=default;edgeStyle=none;entryX=0;entryY=0.5;entryDx=0;entryDy=0;exitX=1;exitY=0.5;exitDx=0;exitDy=0;" edge="1" parent="1" source="HVmYjBGwmGESF4fvWfZF-49" target="ZiS1MG1Vd3PeNEByEQu3-619">
          <mxGeometry width="160" relative="1" as="geometry">
            <mxPoint x="-470" y="280" as="sourcePoint" />
            <mxPoint x="-310" y="280" as="targetPoint" />
          </mxGeometry>
        </mxCell>
        <mxCell id="HVmYjBGwmGESF4fvWfZF-52" style="edgeStyle=none;shape=connector;rounded=0;orthogonalLoop=1;jettySize=auto;html=1;exitX=0.5;exitY=1;exitDx=0;exitDy=0;entryX=0.093;entryY=-0.057;entryDx=0;entryDy=0;strokeColor=default;align=center;verticalAlign=middle;fontFamily=Helvetica;fontSize=11;fontColor=default;labelBackgroundColor=default;endArrow=none;entryPerimeter=0;" edge="1" parent="1" source="HVmYjBGwmGESF4fvWfZF-51" target="HVmYjBGwmGESF4fvWfZF-49">
          <mxGeometry relative="1" as="geometry" />
        </mxCell>
        <mxCell id="HVmYjBGwmGESF4fvWfZF-55" style="edgeStyle=none;shape=connector;rounded=0;orthogonalLoop=1;jettySize=auto;html=1;exitX=0;exitY=0.25;exitDx=0;exitDy=0;strokeColor=default;align=center;verticalAlign=middle;fontFamily=Helvetica;fontSize=11;fontColor=default;labelBackgroundColor=default;endArrow=none;" edge="1" parent="1" source="HVmYjBGwmGESF4fvWfZF-51" target="HVmYjBGwmGESF4fvWfZF-53">
          <mxGeometry relative="1" as="geometry" />
        </mxCell>
        <mxCell id="HVmYjBGwmGESF4fvWfZF-67" style="edgeStyle=none;shape=connector;rounded=0;orthogonalLoop=1;jettySize=auto;html=1;exitX=1;exitY=0.75;exitDx=0;exitDy=0;entryX=0;entryY=0.5;entryDx=0;entryDy=0;strokeColor=default;align=center;verticalAlign=middle;fontFamily=Helvetica;fontSize=11;fontColor=default;labelBackgroundColor=default;endArrow=none;" edge="1" parent="1" source="HVmYjBGwmGESF4fvWfZF-51" target="HVmYjBGwmGESF4fvWfZF-66">
          <mxGeometry relative="1" as="geometry" />
        </mxCell>
        <mxCell id="HVmYjBGwmGESF4fvWfZF-80" style="edgeStyle=none;shape=connector;rounded=0;orthogonalLoop=1;jettySize=auto;html=1;exitX=0;exitY=0;exitDx=0;exitDy=0;entryX=0;entryY=0.25;entryDx=0;entryDy=0;strokeColor=default;align=center;verticalAlign=middle;fontFamily=Helvetica;fontSize=11;fontColor=default;labelBackgroundColor=default;endArrow=none;" edge="1" parent="1" source="HVmYjBGwmGESF4fvWfZF-51" target="HVmYjBGwmGESF4fvWfZF-78">
          <mxGeometry relative="1" as="geometry">
            <Array as="points">
              <mxPoint x="-680" y="-490" />
            </Array>
          </mxGeometry>
        </mxCell>
        <mxCell id="HVmYjBGwmGESF4fvWfZF-51" value="databasemg" style="swimlane;fontStyle=0;childLayout=stackLayout;horizontal=1;startSize=26;fillColor=none;horizontalStack=0;resizeParent=1;resizeParentMax=0;resizeLast=0;collapsible=1;marginBottom=0;whiteSpace=wrap;html=1;" vertex="1" parent="1">
          <mxGeometry x="-640" y="-190" width="140" height="70" as="geometry" />
        </mxCell>
        <mxCell id="HVmYjBGwmGESF4fvWfZF-64" style="edgeStyle=none;shape=connector;rounded=0;orthogonalLoop=1;jettySize=auto;html=1;exitX=0.5;exitY=0;exitDx=0;exitDy=0;entryX=0.5;entryY=1;entryDx=0;entryDy=0;strokeColor=default;align=center;verticalAlign=middle;fontFamily=Helvetica;fontSize=11;fontColor=default;labelBackgroundColor=default;endArrow=none;" edge="1" parent="1" source="HVmYjBGwmGESF4fvWfZF-53" target="HVmYjBGwmGESF4fvWfZF-57">
          <mxGeometry relative="1" as="geometry" />
        </mxCell>
        <mxCell id="HVmYjBGwmGESF4fvWfZF-53" value="project_details_screen" style="swimlane;fontStyle=0;childLayout=stackLayout;horizontal=1;startSize=26;fillColor=none;horizontalStack=0;resizeParent=1;resizeParentMax=0;resizeLast=0;collapsible=1;marginBottom=0;whiteSpace=wrap;html=1;" vertex="1" parent="1">
          <mxGeometry x="-890" y="10" width="140" height="140" as="geometry" />
        </mxCell>
        <mxCell id="HVmYjBGwmGESF4fvWfZF-54" value="" style="endArrow=diamondThin;endFill=1;endSize=24;html=1;rounded=0;strokeColor=default;align=center;verticalAlign=middle;fontFamily=Helvetica;fontSize=11;fontColor=default;labelBackgroundColor=default;edgeStyle=none;entryX=0;entryY=0.75;entryDx=0;entryDy=0;" edge="1" parent="1" target="HVmYjBGwmGESF4fvWfZF-49">
          <mxGeometry width="160" relative="1" as="geometry">
            <mxPoint x="-750" y="100" as="sourcePoint" />
            <mxPoint x="-560" y="280" as="targetPoint" />
          </mxGeometry>
        </mxCell>
        <mxCell id="HVmYjBGwmGESF4fvWfZF-57" value="project_creator" style="swimlane;fontStyle=0;childLayout=stackLayout;horizontal=1;startSize=26;fillColor=none;horizontalStack=0;resizeParent=1;resizeParentMax=0;resizeLast=0;collapsible=1;marginBottom=0;whiteSpace=wrap;html=1;" vertex="1" parent="1">
          <mxGeometry x="-870" y="-200" width="140" height="70" as="geometry" />
        </mxCell>
        <mxCell id="HVmYjBGwmGESF4fvWfZF-58" value="" style="endArrow=diamondThin;endFill=1;endSize=24;html=1;rounded=0;strokeColor=default;align=center;verticalAlign=middle;fontFamily=Helvetica;fontSize=11;fontColor=default;labelBackgroundColor=default;edgeStyle=none;entryX=0.5;entryY=1;entryDx=0;entryDy=0;exitX=0.75;exitY=0;exitDx=0;exitDy=0;" edge="1" parent="1" source="HVmYjBGwmGESF4fvWfZF-59" target="HVmYjBGwmGESF4fvWfZF-53">
          <mxGeometry width="160" relative="1" as="geometry">
            <mxPoint x="-905.1612903225805" y="270" as="sourcePoint" />
            <mxPoint x="-720" y="130" as="targetPoint" />
          </mxGeometry>
        </mxCell>
        <mxCell id="HVmYjBGwmGESF4fvWfZF-59" value="sucess_request_screen" style="swimlane;fontStyle=0;childLayout=stackLayout;horizontal=1;startSize=26;fillColor=none;horizontalStack=0;resizeParent=1;resizeParentMax=0;resizeLast=0;collapsible=1;marginBottom=0;whiteSpace=wrap;html=1;" vertex="1" parent="1">
          <mxGeometry x="-1000" y="280" width="140" height="70" as="geometry" />
        </mxCell>
        <mxCell id="HVmYjBGwmGESF4fvWfZF-60" value="fail_request_screen" style="swimlane;fontStyle=0;childLayout=stackLayout;horizontal=1;startSize=26;fillColor=none;horizontalStack=0;resizeParent=1;resizeParentMax=0;resizeLast=0;collapsible=1;marginBottom=0;whiteSpace=wrap;html=1;" vertex="1" parent="1">
          <mxGeometry x="-820" y="260" width="140" height="70" as="geometry" />
        </mxCell>
        <mxCell id="HVmYjBGwmGESF4fvWfZF-61" value="" style="endArrow=diamondThin;endFill=1;endSize=24;html=1;rounded=0;strokeColor=default;align=center;verticalAlign=middle;fontFamily=Helvetica;fontSize=11;fontColor=default;labelBackgroundColor=default;edgeStyle=none;entryX=1;entryY=1;entryDx=0;entryDy=0;exitX=0.5;exitY=0;exitDx=0;exitDy=0;" edge="1" parent="1" source="HVmYjBGwmGESF4fvWfZF-60" target="HVmYjBGwmGESF4fvWfZF-53">
          <mxGeometry width="160" relative="1" as="geometry">
            <mxPoint x="-880" y="130" as="sourcePoint" />
            <mxPoint x="-720" y="130" as="targetPoint" />
          </mxGeometry>
        </mxCell>
        <mxCell id="HVmYjBGwmGESF4fvWfZF-62" value="" style="endArrow=diamondThin;endFill=1;endSize=24;html=1;rounded=0;strokeColor=default;align=center;verticalAlign=middle;fontFamily=Helvetica;fontSize=11;fontColor=default;labelBackgroundColor=default;edgeStyle=none;" edge="1" parent="1" source="HVmYjBGwmGESF4fvWfZF-63">
          <mxGeometry width="160" relative="1" as="geometry">
            <mxPoint x="-590" y="240" as="sourcePoint" />
            <mxPoint x="-490" y="100" as="targetPoint" />
          </mxGeometry>
        </mxCell>
        <mxCell id="HVmYjBGwmGESF4fvWfZF-63" value="no_project_screen" style="swimlane;fontStyle=0;childLayout=stackLayout;horizontal=1;startSize=26;fillColor=none;horizontalStack=0;resizeParent=1;resizeParentMax=0;resizeLast=0;collapsible=1;marginBottom=0;whiteSpace=wrap;html=1;" vertex="1" parent="1">
          <mxGeometry x="-545" y="240" width="140" height="70" as="geometry" />
        </mxCell>
        <mxCell id="HVmYjBGwmGESF4fvWfZF-65" value="" style="endArrow=diamondThin;endFill=1;endSize=24;html=1;rounded=0;strokeColor=default;align=center;verticalAlign=middle;fontFamily=Helvetica;fontSize=11;fontColor=default;labelBackgroundColor=default;edgeStyle=none;entryX=1;entryY=0;entryDx=0;entryDy=0;exitX=0.5;exitY=1;exitDx=0;exitDy=0;" edge="1" parent="1" source="HVmYjBGwmGESF4fvWfZF-66" target="ZiS1MG1Vd3PeNEByEQu3-619">
          <mxGeometry width="160" relative="1" as="geometry">
            <mxPoint x="-150" y="10" as="sourcePoint" />
            <mxPoint x="-170" y="70" as="targetPoint" />
          </mxGeometry>
        </mxCell>
        <mxCell id="HVmYjBGwmGESF4fvWfZF-66" value="create_project_screen" style="swimlane;fontStyle=0;childLayout=stackLayout;horizontal=1;startSize=26;fillColor=none;horizontalStack=0;resizeParent=1;resizeParentMax=0;resizeLast=0;collapsible=1;marginBottom=0;whiteSpace=wrap;html=1;" vertex="1" parent="1">
          <mxGeometry x="-223" y="-80" width="140" height="70" as="geometry" />
        </mxCell>
        <mxCell id="HVmYjBGwmGESF4fvWfZF-68" value="upload_success_project_screen" style="swimlane;fontStyle=0;childLayout=stackLayout;horizontal=1;startSize=26;fillColor=none;horizontalStack=0;resizeParent=1;resizeParentMax=0;resizeLast=0;collapsible=1;marginBottom=0;whiteSpace=wrap;html=1;" vertex="1" parent="1">
          <mxGeometry x="-243" y="-240" width="180" height="70" as="geometry" />
        </mxCell>
        <mxCell id="HVmYjBGwmGESF4fvWfZF-69" value="" style="endArrow=diamondThin;endFill=1;endSize=24;html=1;rounded=0;strokeColor=default;align=center;verticalAlign=middle;fontFamily=Helvetica;fontSize=11;fontColor=default;labelBackgroundColor=default;edgeStyle=none;entryX=0.5;entryY=0;entryDx=0;entryDy=0;exitX=0.5;exitY=1;exitDx=0;exitDy=0;" edge="1" parent="1" source="HVmYjBGwmGESF4fvWfZF-68" target="HVmYjBGwmGESF4fvWfZF-66">
          <mxGeometry width="160" relative="1" as="geometry">
            <mxPoint x="-290" y="50" as="sourcePoint" />
            <mxPoint x="-130" y="50" as="targetPoint" />
          </mxGeometry>
        </mxCell>
        <mxCell id="HVmYjBGwmGESF4fvWfZF-71" value="duplicate_project_error_screen" style="swimlane;fontStyle=0;childLayout=stackLayout;horizontal=1;startSize=26;fillColor=none;horizontalStack=0;resizeParent=1;resizeParentMax=0;resizeLast=0;collapsible=1;marginBottom=0;whiteSpace=wrap;html=1;" vertex="1" parent="1">
          <mxGeometry x="-20" y="-170" width="180" height="70" as="geometry" />
        </mxCell>
        <mxCell id="HVmYjBGwmGESF4fvWfZF-72" value="" style="endArrow=diamondThin;endFill=1;endSize=24;html=1;rounded=0;strokeColor=default;align=center;verticalAlign=middle;fontFamily=Helvetica;fontSize=11;fontColor=default;labelBackgroundColor=default;edgeStyle=none;entryX=1;entryY=0.5;entryDx=0;entryDy=0;exitX=0;exitY=1;exitDx=0;exitDy=0;" edge="1" parent="1" source="HVmYjBGwmGESF4fvWfZF-71" target="HVmYjBGwmGESF4fvWfZF-66">
          <mxGeometry width="160" relative="1" as="geometry">
            <mxPoint x="-50" y="30" as="sourcePoint" />
            <mxPoint x="110" y="30" as="targetPoint" />
          </mxGeometry>
        </mxCell>
        <mxCell id="HVmYjBGwmGESF4fvWfZF-73" value="personal_project_posts_screen" style="swimlane;fontStyle=0;childLayout=stackLayout;horizontal=1;startSize=26;fillColor=none;horizontalStack=0;resizeParent=1;resizeParentMax=0;resizeLast=0;collapsible=1;marginBottom=0;whiteSpace=wrap;html=1;" vertex="1" parent="1">
          <mxGeometry x="-450" y="-210" width="170" height="70" as="geometry" />
        </mxCell>
        <mxCell id="HVmYjBGwmGESF4fvWfZF-74" value="" style="endArrow=diamondThin;endFill=1;endSize=24;html=1;rounded=0;strokeColor=default;align=center;verticalAlign=middle;fontFamily=Helvetica;fontSize=11;fontColor=default;labelBackgroundColor=default;edgeStyle=none;entryX=1;entryY=0;entryDx=0;entryDy=0;exitX=0.5;exitY=1;exitDx=0;exitDy=0;" edge="1" parent="1" source="HVmYjBGwmGESF4fvWfZF-73" target="HVmYjBGwmGESF4fvWfZF-49">
          <mxGeometry width="160" relative="1" as="geometry">
            <mxPoint x="-640" y="280" as="sourcePoint" />
            <mxPoint x="-480" y="280" as="targetPoint" />
          </mxGeometry>
        </mxCell>
        <mxCell id="HVmYjBGwmGESF4fvWfZF-75" value="edit_project_post_screen" style="swimlane;fontStyle=0;childLayout=stackLayout;horizontal=1;startSize=26;fillColor=none;horizontalStack=0;resizeParent=1;resizeParentMax=0;resizeLast=0;collapsible=1;marginBottom=0;whiteSpace=wrap;html=1;" vertex="1" parent="1">
          <mxGeometry x="-420" y="-320" width="170" height="70" as="geometry" />
        </mxCell>
        <mxCell id="HVmYjBGwmGESF4fvWfZF-77" value="Extends" style="endArrow=block;endSize=16;endFill=0;html=1;rounded=0;strokeColor=default;align=center;verticalAlign=middle;fontFamily=Helvetica;fontSize=11;fontColor=default;labelBackgroundColor=default;edgeStyle=none;entryX=0.629;entryY=0.014;entryDx=0;entryDy=0;exitX=0.75;exitY=1;exitDx=0;exitDy=0;entryPerimeter=0;" edge="1" parent="1" source="HVmYjBGwmGESF4fvWfZF-75" target="HVmYjBGwmGESF4fvWfZF-73">
          <mxGeometry width="160" relative="1" as="geometry">
            <mxPoint x="-640" y="280" as="sourcePoint" />
            <mxPoint x="-480" y="280" as="targetPoint" />
          </mxGeometry>
        </mxCell>
        <mxCell id="HVmYjBGwmGESF4fvWfZF-79" style="edgeStyle=none;shape=connector;rounded=0;orthogonalLoop=1;jettySize=auto;html=1;exitX=0.5;exitY=1;exitDx=0;exitDy=0;entryX=0.5;entryY=0;entryDx=0;entryDy=0;strokeColor=default;align=center;verticalAlign=middle;fontFamily=Helvetica;fontSize=11;fontColor=default;labelBackgroundColor=default;endArrow=none;" edge="1" parent="1" source="HVmYjBGwmGESF4fvWfZF-78" target="HVmYjBGwmGESF4fvWfZF-75">
          <mxGeometry relative="1" as="geometry" />
        </mxCell>
        <mxCell id="HVmYjBGwmGESF4fvWfZF-78" value="approval_screen" style="swimlane;fontStyle=0;childLayout=stackLayout;horizontal=1;startSize=26;fillColor=none;horizontalStack=0;resizeParent=1;resizeParentMax=0;resizeLast=0;collapsible=1;marginBottom=0;whiteSpace=wrap;html=1;" vertex="1" parent="1">
          <mxGeometry x="-405" y="-480" width="170" height="70" as="geometry" />
        </mxCell>
        <mxCell id="HVmYjBGwmGESF4fvWfZF-83" style="edgeStyle=none;shape=connector;rounded=0;orthogonalLoop=1;jettySize=auto;html=1;exitX=0.25;exitY=1;exitDx=0;exitDy=0;entryX=0.25;entryY=0;entryDx=0;entryDy=0;strokeColor=default;align=center;verticalAlign=middle;fontFamily=Helvetica;fontSize=11;fontColor=default;labelBackgroundColor=default;endArrow=none;" edge="1" parent="1" source="HVmYjBGwmGESF4fvWfZF-81" target="HVmYjBGwmGESF4fvWfZF-51">
          <mxGeometry relative="1" as="geometry" />
        </mxCell>
        <mxCell id="HVmYjBGwmGESF4fvWfZF-81" value="delete_project_post_screen" style="swimlane;fontStyle=0;childLayout=stackLayout;horizontal=1;startSize=26;fillColor=none;horizontalStack=0;resizeParent=1;resizeParentMax=0;resizeLast=0;collapsible=1;marginBottom=0;whiteSpace=wrap;html=1;" vertex="1" parent="1">
          <mxGeometry x="-640" y="-460" width="170" height="70" as="geometry" />
        </mxCell>
        <mxCell id="HVmYjBGwmGESF4fvWfZF-82" value="Extends" style="endArrow=block;endSize=16;endFill=0;html=1;rounded=0;strokeColor=default;align=center;verticalAlign=middle;fontFamily=Helvetica;fontSize=11;fontColor=default;labelBackgroundColor=default;edgeStyle=none;entryX=0;entryY=0;entryDx=0;entryDy=0;exitX=0.75;exitY=1;exitDx=0;exitDy=0;" edge="1" parent="1" source="HVmYjBGwmGESF4fvWfZF-81" target="HVmYjBGwmGESF4fvWfZF-75">
          <mxGeometry width="160" relative="1" as="geometry">
            <mxPoint x="-550" y="-220" as="sourcePoint" />
            <mxPoint x="-390" y="-220" as="targetPoint" />
          </mxGeometry>
        </mxCell>
        <mxCell id="HVmYjBGwmGESF4fvWfZF-97" style="edgeStyle=none;shape=connector;rounded=0;orthogonalLoop=1;jettySize=auto;html=1;exitX=0.25;exitY=0;exitDx=0;exitDy=0;strokeColor=default;align=center;verticalAlign=middle;fontFamily=Helvetica;fontSize=11;fontColor=default;labelBackgroundColor=default;endArrow=none;entryX=0.5;entryY=1;entryDx=0;entryDy=0;" edge="1" parent="1" source="HVmYjBGwmGESF4fvWfZF-84" target="HVmYjBGwmGESF4fvWfZF-98">
          <mxGeometry relative="1" as="geometry">
            <mxPoint x="-440" y="620" as="targetPoint" />
          </mxGeometry>
        </mxCell>
        <mxCell id="HVmYjBGwmGESF4fvWfZF-84" value="coffee_bar_filters_screen" style="swimlane;fontStyle=0;childLayout=stackLayout;horizontal=1;startSize=26;fillColor=none;horizontalStack=0;resizeParent=1;resizeParentMax=0;resizeLast=0;collapsible=1;marginBottom=0;whiteSpace=wrap;html=1;" vertex="1" parent="1">
          <mxGeometry x="-460" y="665" width="140" height="70" as="geometry" />
        </mxCell>
        <mxCell id="HVmYjBGwmGESF4fvWfZF-85" value="Extends" style="endArrow=block;endSize=16;endFill=0;html=1;rounded=0;strokeColor=default;align=center;verticalAlign=middle;fontFamily=Helvetica;fontSize=11;fontColor=default;labelBackgroundColor=default;edgeStyle=none;entryX=0;entryY=1;entryDx=0;entryDy=0;exitX=1;exitY=0;exitDx=0;exitDy=0;" edge="1" parent="1" source="HVmYjBGwmGESF4fvWfZF-84" target="ZiS1MG1Vd3PeNEByEQu3-612">
          <mxGeometry width="160" relative="1" as="geometry">
            <mxPoint x="-150" y="590" as="sourcePoint" />
            <mxPoint x="10" y="590" as="targetPoint" />
          </mxGeometry>
        </mxCell>
        <mxCell id="HVmYjBGwmGESF4fvWfZF-88" style="edgeStyle=none;shape=connector;rounded=0;orthogonalLoop=1;jettySize=auto;html=1;exitX=1;exitY=0.5;exitDx=0;exitDy=0;entryX=0;entryY=0.5;entryDx=0;entryDy=0;strokeColor=default;align=center;verticalAlign=middle;fontFamily=Helvetica;fontSize=11;fontColor=default;labelBackgroundColor=default;endArrow=none;" edge="1" parent="1" source="HVmYjBGwmGESF4fvWfZF-86" target="HVmYjBGwmGESF4fvWfZF-84">
          <mxGeometry relative="1" as="geometry" />
        </mxCell>
        <mxCell id="HVmYjBGwmGESF4fvWfZF-93" style="edgeStyle=none;shape=connector;rounded=0;orthogonalLoop=1;jettySize=auto;html=1;entryX=0.25;entryY=0;entryDx=0;entryDy=0;strokeColor=default;align=center;verticalAlign=middle;fontFamily=Helvetica;fontSize=11;fontColor=default;labelBackgroundColor=default;endArrow=none;" edge="1" parent="1" source="HVmYjBGwmGESF4fvWfZF-86" target="HVmYjBGwmGESF4fvWfZF-91">
          <mxGeometry relative="1" as="geometry" />
        </mxCell>
        <mxCell id="HVmYjBGwmGESF4fvWfZF-86" value="databsemg_coffee" style="swimlane;fontStyle=0;childLayout=stackLayout;horizontal=1;startSize=26;fillColor=none;horizontalStack=0;resizeParent=1;resizeParentMax=0;resizeLast=0;collapsible=1;marginBottom=0;whiteSpace=wrap;html=1;" vertex="1" parent="1">
          <mxGeometry x="-820" y="680" width="140" height="70" as="geometry" />
        </mxCell>
        <mxCell id="HVmYjBGwmGESF4fvWfZF-89" value="filters_results_screen" style="swimlane;fontStyle=0;childLayout=stackLayout;horizontal=1;startSize=26;fillColor=none;horizontalStack=0;resizeParent=1;resizeParentMax=0;resizeLast=0;collapsible=1;marginBottom=0;whiteSpace=wrap;html=1;" vertex="1" parent="1">
          <mxGeometry x="-650" y="780" width="140" height="70" as="geometry" />
        </mxCell>
        <mxCell id="HVmYjBGwmGESF4fvWfZF-90" value="" style="endArrow=diamondThin;endFill=1;endSize=24;html=1;rounded=0;strokeColor=default;align=center;verticalAlign=middle;fontFamily=Helvetica;fontSize=11;fontColor=default;labelBackgroundColor=default;edgeStyle=none;entryX=0;entryY=1;entryDx=0;entryDy=0;exitX=1;exitY=0;exitDx=0;exitDy=0;" edge="1" parent="1" source="HVmYjBGwmGESF4fvWfZF-89" target="HVmYjBGwmGESF4fvWfZF-84">
          <mxGeometry width="160" relative="1" as="geometry">
            <mxPoint x="-610" y="800" as="sourcePoint" />
            <mxPoint x="-450" y="800" as="targetPoint" />
          </mxGeometry>
        </mxCell>
        <mxCell id="HVmYjBGwmGESF4fvWfZF-91" value="food/coffee_details_screen" style="swimlane;fontStyle=0;childLayout=stackLayout;horizontal=1;startSize=26;fillColor=none;horizontalStack=0;resizeParent=1;resizeParentMax=0;resizeLast=0;collapsible=1;marginBottom=0;whiteSpace=wrap;html=1;" vertex="1" parent="1">
          <mxGeometry x="-780" y="920" width="140" height="70" as="geometry" />
        </mxCell>
        <mxCell id="HVmYjBGwmGESF4fvWfZF-92" value="" style="endArrow=diamondThin;endFill=1;endSize=24;html=1;rounded=0;strokeColor=default;align=center;verticalAlign=middle;fontFamily=Helvetica;fontSize=11;fontColor=default;labelBackgroundColor=default;edgeStyle=none;entryX=0;entryY=1;entryDx=0;entryDy=0;exitX=0.5;exitY=0;exitDx=0;exitDy=0;" edge="1" parent="1" source="HVmYjBGwmGESF4fvWfZF-91" target="HVmYjBGwmGESF4fvWfZF-89">
          <mxGeometry width="160" relative="1" as="geometry">
            <mxPoint x="-610" y="800" as="sourcePoint" />
            <mxPoint x="-450" y="800" as="targetPoint" />
          </mxGeometry>
        </mxCell>
        <mxCell id="HVmYjBGwmGESF4fvWfZF-94" value="food/coffee_map_screen" style="swimlane;fontStyle=0;childLayout=stackLayout;horizontal=1;startSize=26;fillColor=none;horizontalStack=0;resizeParent=1;resizeParentMax=0;resizeLast=0;collapsible=1;marginBottom=0;whiteSpace=wrap;html=1;" vertex="1" parent="1">
          <mxGeometry x="-990" y="950" width="140" height="70" as="geometry" />
        </mxCell>
        <mxCell id="HVmYjBGwmGESF4fvWfZF-95" value="" style="endArrow=diamondThin;endFill=1;endSize=24;html=1;rounded=0;strokeColor=default;align=center;verticalAlign=middle;fontFamily=Helvetica;fontSize=11;fontColor=default;labelBackgroundColor=default;edgeStyle=none;entryX=0;entryY=0.5;entryDx=0;entryDy=0;exitX=1;exitY=0.5;exitDx=0;exitDy=0;" edge="1" parent="1" source="HVmYjBGwmGESF4fvWfZF-94" target="HVmYjBGwmGESF4fvWfZF-91">
          <mxGeometry width="160" relative="1" as="geometry">
            <mxPoint x="-810" y="780" as="sourcePoint" />
            <mxPoint x="-650" y="780" as="targetPoint" />
          </mxGeometry>
        </mxCell>
        <mxCell id="HVmYjBGwmGESF4fvWfZF-98" value="coffee_bar_filters_error_screen" style="swimlane;fontStyle=0;childLayout=stackLayout;horizontal=1;startSize=26;fillColor=none;horizontalStack=0;resizeParent=1;resizeParentMax=0;resizeLast=0;collapsible=1;marginBottom=0;whiteSpace=wrap;html=1;" vertex="1" parent="1">
          <mxGeometry x="-520" y="560" width="170" height="70" as="geometry" />
        </mxCell>
        <mxCell id="HVmYjBGwmGESF4fvWfZF-99" value="food/coffee_details error_screen" style="swimlane;fontStyle=0;childLayout=stackLayout;horizontal=1;startSize=26;fillColor=none;horizontalStack=0;resizeParent=1;resizeParentMax=0;resizeLast=0;collapsible=1;marginBottom=0;whiteSpace=wrap;html=1;" vertex="1" parent="1">
          <mxGeometry x="-590" y="900" width="140" height="80" as="geometry" />
        </mxCell>
        <mxCell id="HVmYjBGwmGESF4fvWfZF-100" value="" style="endArrow=diamondThin;endFill=1;endSize=24;html=1;rounded=0;strokeColor=default;align=center;verticalAlign=middle;fontFamily=Helvetica;fontSize=11;fontColor=default;labelBackgroundColor=default;edgeStyle=none;entryX=1;entryY=0.75;entryDx=0;entryDy=0;exitX=0;exitY=0.5;exitDx=0;exitDy=0;" edge="1" parent="1" source="HVmYjBGwmGESF4fvWfZF-99" target="HVmYjBGwmGESF4fvWfZF-91">
          <mxGeometry width="160" relative="1" as="geometry">
            <mxPoint x="-760" y="790" as="sourcePoint" />
            <mxPoint x="-600" y="790" as="targetPoint" />
          </mxGeometry>
        </mxCell>
        <mxCell id="HVmYjBGwmGESF4fvWfZF-101" value="bus_schedule_screen" style="swimlane;fontStyle=0;childLayout=stackLayout;horizontal=1;startSize=26;fillColor=none;horizontalStack=0;resizeParent=1;resizeParentMax=0;resizeLast=0;collapsible=1;marginBottom=0;whiteSpace=wrap;html=1;" vertex="1" parent="1">
          <mxGeometry x="640" y="410" width="170" height="70" as="geometry" />
        </mxCell>
        <mxCell id="HVmYjBGwmGESF4fvWfZF-102" value="Extends" style="endArrow=block;endSize=16;endFill=0;html=1;rounded=0;strokeColor=default;align=center;verticalAlign=middle;fontFamily=Helvetica;fontSize=11;fontColor=default;labelBackgroundColor=default;edgeStyle=none;entryX=1;entryY=0.25;entryDx=0;entryDy=0;exitX=0;exitY=0.75;exitDx=0;exitDy=0;" edge="1" parent="1" source="HVmYjBGwmGESF4fvWfZF-101" target="ZiS1MG1Vd3PeNEByEQu3-617">
          <mxGeometry width="160" relative="1" as="geometry">
            <mxPoint x="200" y="460" as="sourcePoint" />
            <mxPoint x="360" y="460" as="targetPoint" />
          </mxGeometry>
        </mxCell>
        <mxCell id="HVmYjBGwmGESF4fvWfZF-104" style="edgeStyle=none;shape=connector;rounded=0;orthogonalLoop=1;jettySize=auto;html=1;exitX=1;exitY=1;exitDx=0;exitDy=0;entryX=0.5;entryY=0;entryDx=0;entryDy=0;strokeColor=default;align=center;verticalAlign=middle;fontFamily=Helvetica;fontSize=11;fontColor=default;labelBackgroundColor=default;endArrow=none;" edge="1" parent="1" source="HVmYjBGwmGESF4fvWfZF-103" target="HVmYjBGwmGESF4fvWfZF-101">
          <mxGeometry relative="1" as="geometry" />
        </mxCell>
        <mxCell id="HVmYjBGwmGESF4fvWfZF-105" style="edgeStyle=none;shape=connector;rounded=0;orthogonalLoop=1;jettySize=auto;html=1;exitX=0;exitY=1;exitDx=0;exitDy=0;entryX=1;entryY=0;entryDx=0;entryDy=0;strokeColor=default;align=center;verticalAlign=middle;fontFamily=Helvetica;fontSize=11;fontColor=default;labelBackgroundColor=default;endArrow=none;" edge="1" parent="1" source="HVmYjBGwmGESF4fvWfZF-103" target="ZiS1MG1Vd3PeNEByEQu3-617">
          <mxGeometry relative="1" as="geometry" />
        </mxCell>
        <mxCell id="HVmYjBGwmGESF4fvWfZF-110" style="edgeStyle=none;shape=connector;rounded=0;orthogonalLoop=1;jettySize=auto;html=1;exitX=0.5;exitY=1;exitDx=0;exitDy=0;entryX=0.5;entryY=0;entryDx=0;entryDy=0;strokeColor=default;align=center;verticalAlign=middle;fontFamily=Helvetica;fontSize=11;fontColor=default;labelBackgroundColor=default;endArrow=none;" edge="1" parent="1" source="HVmYjBGwmGESF4fvWfZF-103" target="HVmYjBGwmGESF4fvWfZF-108">
          <mxGeometry relative="1" as="geometry" />
        </mxCell>
        <mxCell id="HVmYjBGwmGESF4fvWfZF-113" style="edgeStyle=none;shape=connector;rounded=0;orthogonalLoop=1;jettySize=auto;html=1;exitX=0.75;exitY=1;exitDx=0;exitDy=0;entryX=0;entryY=0;entryDx=0;entryDy=0;strokeColor=default;align=center;verticalAlign=middle;fontFamily=Helvetica;fontSize=11;fontColor=default;labelBackgroundColor=default;endArrow=none;" edge="1" parent="1" source="HVmYjBGwmGESF4fvWfZF-103" target="HVmYjBGwmGESF4fvWfZF-111">
          <mxGeometry relative="1" as="geometry">
            <Array as="points">
              <mxPoint x="640" y="520" />
            </Array>
          </mxGeometry>
        </mxCell>
        <mxCell id="HVmYjBGwmGESF4fvWfZF-103" value="databasemgMMM" style="swimlane;fontStyle=0;childLayout=stackLayout;horizontal=1;startSize=26;fillColor=none;horizontalStack=0;resizeParent=1;resizeParentMax=0;resizeLast=0;collapsible=1;marginBottom=0;whiteSpace=wrap;html=1;" vertex="1" parent="1">
          <mxGeometry x="440" y="330" width="170" height="70" as="geometry" />
        </mxCell>
        <mxCell id="HVmYjBGwmGESF4fvWfZF-106" value="bus_information_screen" style="swimlane;fontStyle=0;childLayout=stackLayout;horizontal=1;startSize=26;fillColor=none;horizontalStack=0;resizeParent=1;resizeParentMax=0;resizeLast=0;collapsible=1;marginBottom=0;whiteSpace=wrap;html=1;" vertex="1" parent="1">
          <mxGeometry x="870" y="410" width="170" height="70" as="geometry" />
        </mxCell>
        <mxCell id="HVmYjBGwmGESF4fvWfZF-107" value="" style="endArrow=diamondThin;endFill=1;endSize=24;html=1;rounded=0;strokeColor=default;align=center;verticalAlign=middle;fontFamily=Helvetica;fontSize=11;fontColor=default;labelBackgroundColor=default;edgeStyle=none;entryX=1;entryY=0.5;entryDx=0;entryDy=0;exitX=0;exitY=0.5;exitDx=0;exitDy=0;" edge="1" parent="1" source="HVmYjBGwmGESF4fvWfZF-106" target="HVmYjBGwmGESF4fvWfZF-101">
          <mxGeometry width="160" relative="1" as="geometry">
            <mxPoint x="220" y="440" as="sourcePoint" />
            <mxPoint x="380" y="440" as="targetPoint" />
          </mxGeometry>
        </mxCell>
        <mxCell id="HVmYjBGwmGESF4fvWfZF-108" value="bus/train_tickets_screen" style="swimlane;fontStyle=0;childLayout=stackLayout;horizontal=1;startSize=26;fillColor=none;horizontalStack=0;resizeParent=1;resizeParentMax=0;resizeLast=0;collapsible=1;marginBottom=0;whiteSpace=wrap;html=1;" vertex="1" parent="1">
          <mxGeometry x="510" y="584" width="170" height="70" as="geometry" />
        </mxCell>
        <mxCell id="HVmYjBGwmGESF4fvWfZF-109" value="" style="endArrow=diamondThin;endFill=1;endSize=24;html=1;rounded=0;strokeColor=default;align=center;verticalAlign=middle;fontFamily=Helvetica;fontSize=11;fontColor=default;labelBackgroundColor=default;edgeStyle=none;entryX=1;entryY=1;entryDx=0;entryDy=0;exitX=0;exitY=0.25;exitDx=0;exitDy=0;" edge="1" parent="1" source="HVmYjBGwmGESF4fvWfZF-108" target="ZiS1MG1Vd3PeNEByEQu3-617">
          <mxGeometry width="160" relative="1" as="geometry">
            <mxPoint x="430" y="450" as="sourcePoint" />
            <mxPoint x="590" y="450" as="targetPoint" />
          </mxGeometry>
        </mxCell>
        <mxCell id="HVmYjBGwmGESF4fvWfZF-111" value="personal_info_screen" style="swimlane;fontStyle=0;childLayout=stackLayout;horizontal=1;startSize=26;fillColor=none;horizontalStack=0;resizeParent=1;resizeParentMax=0;resizeLast=0;collapsible=1;marginBottom=0;whiteSpace=wrap;html=1;" vertex="1" parent="1">
          <mxGeometry x="750" y="610" width="170" height="70" as="geometry" />
        </mxCell>
        <mxCell id="HVmYjBGwmGESF4fvWfZF-112" value="Extends" style="endArrow=block;endSize=16;endFill=0;html=1;rounded=0;strokeColor=default;align=center;verticalAlign=middle;fontFamily=Helvetica;fontSize=11;fontColor=default;labelBackgroundColor=default;edgeStyle=none;entryX=1;entryY=0.75;entryDx=0;entryDy=0;exitX=0;exitY=0.75;exitDx=0;exitDy=0;" edge="1" parent="1" source="HVmYjBGwmGESF4fvWfZF-111" target="HVmYjBGwmGESF4fvWfZF-108">
          <mxGeometry width="160" relative="1" as="geometry">
            <mxPoint x="430" y="450" as="sourcePoint" />
            <mxPoint x="590" y="450" as="targetPoint" />
          </mxGeometry>
        </mxCell>
        <mxCell id="HVmYjBGwmGESF4fvWfZF-114" value="personal_success_screen" style="swimlane;fontStyle=0;childLayout=stackLayout;horizontal=1;startSize=26;fillColor=none;horizontalStack=0;resizeParent=1;resizeParentMax=0;resizeLast=0;collapsible=1;marginBottom=0;whiteSpace=wrap;html=1;" vertex="1" parent="1">
          <mxGeometry x="680" y="720" width="170" height="70" as="geometry" />
        </mxCell>
        <mxCell id="HVmYjBGwmGESF4fvWfZF-116" value="" style="endArrow=diamondThin;endFill=1;endSize=24;html=1;rounded=0;strokeColor=default;align=center;verticalAlign=middle;fontFamily=Helvetica;fontSize=11;fontColor=default;labelBackgroundColor=default;edgeStyle=none;entryX=0.5;entryY=1;entryDx=0;entryDy=0;exitX=0.5;exitY=0;exitDx=0;exitDy=0;" edge="1" parent="1" source="HVmYjBGwmGESF4fvWfZF-114" target="HVmYjBGwmGESF4fvWfZF-111">
          <mxGeometry width="160" relative="1" as="geometry">
            <mxPoint x="530" y="530" as="sourcePoint" />
            <mxPoint x="690" y="530" as="targetPoint" />
          </mxGeometry>
        </mxCell>
        <mxCell id="HVmYjBGwmGESF4fvWfZF-117" value="error_personal_info_screen" style="swimlane;fontStyle=0;childLayout=stackLayout;horizontal=1;startSize=26;fillColor=none;horizontalStack=0;resizeParent=1;resizeParentMax=0;resizeLast=0;collapsible=1;marginBottom=0;whiteSpace=wrap;html=1;" vertex="1" parent="1">
          <mxGeometry x="827" y="490" width="170" height="70" as="geometry" />
        </mxCell>
        <mxCell id="HVmYjBGwmGESF4fvWfZF-118" value="" style="endArrow=diamondThin;endFill=1;endSize=24;html=1;rounded=0;strokeColor=default;align=center;verticalAlign=middle;fontFamily=Helvetica;fontSize=11;fontColor=default;labelBackgroundColor=default;edgeStyle=none;entryX=0.75;entryY=0;entryDx=0;entryDy=0;exitX=0.5;exitY=1;exitDx=0;exitDy=0;" edge="1" parent="1" source="HVmYjBGwmGESF4fvWfZF-117" target="HVmYjBGwmGESF4fvWfZF-111">
          <mxGeometry width="160" relative="1" as="geometry">
            <mxPoint x="530" y="530" as="sourcePoint" />
            <mxPoint x="690" y="530" as="targetPoint" />
          </mxGeometry>
        </mxCell>
      </root>
    </mxGraphModel>
  </diagram>
</mxfile>
